<svg width="518" height="586" viewBox="0 0 518 586" fill="none" xmlns="http://www.w3.org/2000/svg">
<path d="M268.343 585.929C236.157 585.258 206.077 579.298 178.934 568.226C151.424 557.002 126.083 540.166 103.598 518.201C90.7167 505.619 79.6896 491.786 70.8033 477.104L70.7496 477.041C69.7373 475.844 67.0499 472.662 67.7755 468.105C67.7934 468.006 67.8114 467.917 67.8293 467.819C55.5928 466.657 43.4279 465.478 31.8722 464.343C30.4658 464.209 29.2924 463.869 28.522 463.646C28.3697 463.601 28.2174 463.556 28.0651 463.521L0 456.568L27.0977 446.479C27.2768 446.417 27.456 446.336 27.6262 446.265C28.3428 445.979 29.3192 445.577 30.5017 445.282C30.5286 445.282 30.5644 445.264 30.5913 445.264C23.2816 441.484 18.7847 433.513 18.7131 423.138V422.2C18.7041 416.436 18.6952 412.263 21.8125 408.491C23.3712 406.606 25.1717 405.471 27.241 404.703C21.3109 398.224 18.3727 390.235 18.6772 381.218C18.7937 377.903 18.7668 374.588 18.731 371.076C18.7131 368.484 18.6862 365.794 18.731 363.104C18.8743 353.382 23.6758 345.205 31.0839 340.594L28.9878 324.295L29.0953 324.25C29.6507 324.018 30.6898 323.58 32.0156 323.338L37.7934 322.284C37.1305 319.424 37.9547 316.958 38.3578 315.85C46.6886 267.353 68.5011 225.094 103.177 190.243C106.984 186.418 110.997 182.906 114.885 179.51C116.399 178.179 117.922 176.856 119.418 175.516L119.463 175.471C120.332 174.64 122.956 172.102 127.113 172.102C127.668 172.102 128.215 172.147 128.761 172.245C127.758 170.601 127.068 168.376 127.032 165.373V165.087C126.978 159.726 126.934 155.856 129.513 152.04C132.031 148.305 135.659 146.786 140.684 144.686L144.67 143.015C151.962 139.968 159.505 136.813 166.841 133.605C169.278 132.542 171.571 132.023 173.855 132.023C176.014 132.023 178.182 132.497 180.296 133.417C189.092 137.269 198.14 141.129 207.841 145.169C207.841 127.117 207.841 108.7 207.752 90.5415C207.725 84.9028 209.642 80.399 213.78 76.3777C218.268 72.0168 222.783 67.4951 227.155 63.1164C232.95 57.3257 238.943 51.3295 245.008 45.5389C248.537 42.1699 250.176 39.5337 250.651 36.4418C251.018 34.0648 251.646 31.9112 252.21 30.0078C252.398 29.3822 252.577 28.7567 252.747 28.1311C253.025 27.1124 253.374 26.3171 253.607 25.7899L253.706 25.5665L264.222 0L270.699 26.755L270.744 26.898C270.968 27.6397 271.398 29.0158 271.398 30.7673C271.398 33.7699 271.416 36.7725 271.425 39.7661C271.469 49.7746 271.505 60.1227 271.335 70.3457C273.763 71.9096 276.047 73.5449 278.268 75.1355C280.687 76.8692 282.971 78.5045 285.3 79.9522C290.021 82.8922 292.368 87.3156 292.297 93.1062C292.252 96.1624 292.234 99.2633 292.225 102.328C294.393 100.479 296.578 98.6288 298.755 96.7969C299.687 95.7514 302.419 92.7399 307.023 92.7399C308.734 92.7399 310.445 93.1867 311.977 94.0267C317.119 96.8684 317.02 102.498 316.993 104.357V104.714C316.993 106.859 317.002 108.995 317.011 111.139C317.038 118.789 317.074 126.688 316.949 134.517C321.876 137.743 324.626 141.791 326.122 145.892C326.964 145.517 327.85 145.151 328.782 144.757L331.066 143.792C339.039 140.432 347.28 136.965 355.289 133.435C357.573 132.426 359.723 131.943 361.873 131.943C363.888 131.943 365.913 132.381 367.892 133.239C380.174 138.583 390.144 142.827 399.29 146.572C403.509 148.305 408.516 152.13 408.454 160.539C408.427 164.399 408.4 168.278 408.391 172.165C412.574 172.183 415.208 174.64 416.202 175.561L416.319 175.668C429.917 187.035 441.831 199.331 451.72 212.199C474.536 241.894 489.55 275.146 496.34 311.042L496.537 312.097C496.797 313.437 497.056 314.813 497.289 316.252V316.27C497.576 317.235 498.257 319.603 497.63 322.32C499.538 322.659 501.446 323.008 503.354 323.356C504.509 323.562 505.423 323.91 505.97 324.116L506.158 324.187L504.581 341.506L504.411 341.533C503.847 341.631 502.897 341.81 501.741 341.81C501.437 341.81 501.141 341.81 500.837 341.81C507.304 345.607 511.371 352.256 512.124 360.933C513.181 373.176 512.724 385.481 512.321 396.347C512.088 402.567 509.526 407.937 505.244 411.494C506.113 413.558 506.982 415.631 507.851 417.705C510.063 422.986 512.348 428.446 514.686 433.727C516.504 437.838 516.396 441.484 514.381 444.576C513.458 445.997 512.213 447.105 510.753 447.864C512.007 448.999 512.778 450.25 513.216 451.206L518 461.429L506.928 463.735C506.74 463.771 506.543 463.824 506.355 463.869C505.602 464.048 504.572 464.298 503.363 464.414C499.815 464.763 496.268 465.12 492.721 465.478C484.596 466.291 476.265 467.131 467.943 467.881C468.373 470.392 467.818 473.324 465.435 476.228C457.525 488.998 448.514 500.793 438.642 511.284C401.717 550.523 355.719 574.785 301.935 583.4C298.603 583.936 295.351 584.311 292.27 584.526C286.411 584.937 280.66 585.276 275.097 585.616C273.028 585.741 268.71 586 268.71 586H268.343V585.929ZM134.36 497.424C134.36 497.424 134.315 497.371 134.297 497.335C134.064 497.121 133.831 496.915 133.598 496.701C133.849 496.942 134.1 497.183 134.36 497.424ZM319.072 466.237C319.564 466.863 320.012 467.524 320.406 468.23C321.777 470.625 322.485 473.261 322.529 475.978C328.684 475.227 334.874 472.555 342.094 467.587C352.556 460.384 361.478 452.717 369.102 444.361C345.793 442.449 324.626 441.207 304.587 440.563C305.608 441.216 306.396 441.966 306.988 442.708C307.041 442.708 307.086 442.708 307.14 442.717C307.19 442.721 307.24 442.726 307.292 442.73C307.973 442.79 308.804 442.863 309.72 443.021C311.628 443.334 317.889 445.049 318.221 453.798V454.021C318.274 454.736 318.292 455.442 318.31 456.148C318.311 456.173 318.312 456.199 318.312 456.224C318.347 457.479 318.377 458.563 318.597 459.133C319.52 461.483 319.672 463.949 319.063 466.246L319.072 466.237ZM223.079 455.809C225.497 457.364 227.388 460.241 227.719 464.602C228.006 468.391 228.265 472.162 228.498 475.754C229.484 475.754 230.469 475.754 231.445 475.754C231.544 473.216 232.225 470.759 233.479 468.507C233.533 468.409 233.586 468.319 233.64 468.221C232.485 465.594 232.198 462.538 231.875 459.017L231.831 458.57C231.49 454.87 231.795 451.403 232.073 448.347C232.216 446.712 232.359 445.192 232.395 443.78C231.014 443.842 224.026 444.149 221.618 444.256C221.558 444.258 221.502 444.261 221.448 444.263C221.457 444.343 221.466 444.424 221.484 444.504C221.486 444.518 221.488 444.533 221.49 444.547C221.989 448.445 222.463 452.14 223.079 455.818V455.809ZM166.384 444.442C174.957 453.878 184.64 461.992 195.327 468.712L196.904 461.009L196.563 457.909L196.832 457.658C196.814 457.578 196.796 457.489 196.778 457.417C196.773 457.39 196.767 457.363 196.761 457.336C196.315 455.219 195.727 452.425 196.142 449.187C196.071 447.355 195.874 445.425 195.659 443.396C195.623 443.012 195.578 442.628 195.542 442.235C195.417 442.235 195.291 442.243 195.166 442.252C191.466 442.359 187.749 442.687 183.82 443.034C183.801 443.035 183.782 443.037 183.763 443.039C182.069 443.191 180.376 443.343 178.674 443.468C178.674 443.468 168.077 444.308 166.375 444.433L166.384 444.442ZM66.8439 434.165C66.0825 435.318 65.2315 436.399 64.3088 437.418C65.7779 437.105 67.247 436.801 68.7251 436.497C67.9099 435.729 67.3008 434.916 66.8439 434.165ZM94.8643 412.405C94.8643 413.871 94.8553 415.31 94.8374 416.722C94.837 416.751 94.8366 416.779 94.8362 416.808C94.8008 419.493 94.7673 422.029 94.918 424.46C95.0792 427.195 94.6672 429.626 93.7176 431.681C99.5044 430.644 105.318 429.661 111.15 428.732C108.749 425.56 108.785 421.914 108.803 420.439C108.856 415.39 108.874 410.288 108.883 405.221C105.166 408.706 100.382 411.226 94.8732 412.397L94.8643 412.405ZM403.007 425.56C408.687 426.346 414.339 427.168 419.947 428.044C419.338 426.471 418.97 424.568 418.997 422.253C419.051 415.694 419.06 409.063 419.051 403.46C415.378 406.534 410.595 408.348 404.978 408.625C405.014 410.216 404.978 411.744 404.942 413.156C404.897 414.738 404.862 416.23 404.933 417.58C404.933 417.582 404.934 417.585 404.934 417.588C404.997 418.864 405.17 422.376 403.016 425.56H403.007ZM335.689 418.589L335.693 418.59C340.117 418.893 344.522 419.233 348.911 419.599C349.959 419.688 350.998 419.778 352.046 419.867C350.752 416.894 350.729 413.512 350.702 409.51C350.702 409.495 350.702 409.48 350.702 409.465C350.702 409.465 350.648 401.628 350.63 398.796C347.02 401.834 342.291 403.711 336.656 404.211C336.71 406.043 336.728 408.036 336.549 410.091C336.567 410.216 336.584 410.341 336.602 410.466C337.112 413.973 336.631 416.607 335.693 418.59C335.691 418.593 335.69 418.595 335.689 418.598V418.589ZM238.486 417.723C240.117 417.955 241.675 418.303 243.153 418.723L252.102 417.177C250.615 414.38 250.615 411.262 250.615 408.768V408.483C250.902 399.628 248.681 392.855 246.325 385.671L246.325 385.668C246.19 385.257 246.056 384.846 245.921 384.435C245.85 389.806 245.769 395.507 245.671 401.646C245.563 408.152 242.93 413.764 238.495 417.723H238.486ZM282.604 416.48C290.612 416.57 298.648 416.757 306.665 417.052C306.253 415.685 306.074 414.041 306.262 412.075V412.021C306.253 405.4 306.244 398.778 306.235 392.147C306.235 392.05 306.235 391.952 306.235 391.855C306.217 378.246 306.198 364.185 306.101 350.361C306.092 348.932 306.065 344.598 309.424 341.211C311.619 339.004 314.548 337.887 318.14 337.887C318.391 337.887 318.66 337.887 318.928 337.904C320.81 337.976 322.771 337.985 324.438 337.985H327.913C330.663 337.985 333.619 338.012 336.602 338.208C337.086 338.244 337.561 338.28 338.036 338.342C337.167 337.681 336.432 336.993 335.796 336.367C326.704 327.27 317.585 318.191 308.475 309.112C304.426 305.073 300.332 300.998 296.22 296.896C296.39 298.657 296.39 300.551 296.39 302.598C296.39 306.762 296.39 310.265 294.867 313.303C296.39 316.35 296.39 319.871 296.39 324.053C296.39 329.781 296.39 334.312 292.727 338.021C291.92 338.834 291.069 339.477 290.182 339.978C291.204 340.63 292.144 341.497 292.986 342.65C296.301 347.225 294.877 351.934 293.229 357.384L293.228 357.385L293.201 357.484C292.27 360.567 291.347 363.65 290.415 366.724C290.311 367.07 290.207 367.417 290.102 367.764C287.378 376.814 284.57 386.145 281.637 395.311C280.406 399.164 280.498 403.424 280.605 408.348C280.606 408.369 280.606 408.39 280.606 408.411L280.642 410.055C280.669 411.244 280.714 413.808 279.54 416.454C280.562 416.454 281.574 416.471 282.595 416.48H282.604ZM51.4453 384.399C52.78 385.651 54.5626 386.964 56.9096 388.412C60.0807 390.369 62.777 392.683 64.9717 395.293V383.291C62.1948 384.569 59.4715 384.632 58.307 384.659H57.8591C56.8917 384.694 56.0586 384.712 55.333 384.712C54.4641 384.712 53.0487 384.712 51.4453 384.399ZM453.763 384.534C456.522 384.534 458.645 385.248 460.248 386.214C460.248 383.908 460.248 381.602 460.257 379.297C460.257 375.258 460.275 371.147 460.266 367.027C458.063 367.716 456.011 367.716 454.856 367.716C453.646 367.716 452.285 367.653 450.717 367.59C450.027 367.564 449.373 367.537 448.773 367.51C448.773 368.1 448.773 368.699 448.773 369.279C448.773 371.093 448.773 372.908 448.791 374.73C448.8 377.876 448.818 381.084 448.791 384.319C449.311 384.391 449.812 384.471 450.305 384.542L451.147 384.668C451.335 384.668 451.523 384.641 451.711 384.623C452.276 384.578 452.975 384.525 453.754 384.525L453.763 384.534ZM144.822 379.887C146.659 379.887 148.621 380.289 150.376 381.209V378.805H150.977V377.822C150.977 373.81 150.995 369.735 150.986 365.642C149.857 365.955 148.576 366.152 147.107 366.152C146.74 366.152 146.345 366.143 145.933 366.116C145.136 366.062 144.258 366.036 143.264 366.036C141.999 366.036 140.711 366.075 139.347 366.117C139.262 366.12 139.176 366.122 139.089 366.125C139.063 366.125 139.045 366.125 139.018 366.125C139 371.076 138.955 375.883 138.892 380.253C140.379 380.19 141.795 380.119 143.147 379.976C143.73 379.913 144.267 379.887 144.805 379.887H144.822ZM186.705 377.519C188.692 377.519 190.563 377.966 192.192 378.805V372.47H192.496C192.496 370.012 192.505 367.537 192.505 365.044C191.457 365.321 190.275 365.482 188.931 365.482C188.636 365.482 188.322 365.482 187.991 365.455C187.767 365.446 187.543 365.437 187.319 365.437C186.416 365.437 185.378 365.516 184.28 365.6C184.212 365.605 184.144 365.61 184.076 365.616C183.091 365.696 182.016 365.776 180.887 365.821C181.012 369.869 180.986 373.899 180.923 377.858C182.499 377.778 183.986 377.697 185.438 377.572C185.884 377.537 186.303 377.519 186.705 377.519ZM262.422 341.595C263.694 342.846 264.617 344.347 265.333 345.983C266.31 343.65 267.653 341.961 269.158 340.755C268.675 340.576 268.2 340.371 267.743 340.121C266.113 340.978 264.33 341.39 262.431 341.586L262.422 341.595ZM61.7917 341.765C61.7956 341.768 61.7995 341.771 61.8034 341.774C63.3126 342.915 64.6703 344.217 65.8675 345.67C66.3154 344.374 67.032 343.007 68.1607 341.774C66.0238 341.774 63.9047 341.774 61.8034 341.774C61.7995 341.774 61.7956 341.774 61.7917 341.774V341.765ZM94.3089 338.226C100.615 338.45 106.133 340.827 110.173 344.687C110.585 343.731 111.159 342.757 111.947 341.836C106.948 341.524 101.905 338.664 101.063 331.56C99.2715 333.338 97.4889 335.125 95.7063 336.913C95.6755 336.943 95.6438 336.975 95.6113 337.007C95.2753 337.343 94.8487 337.77 94.3178 338.226H94.3089ZM415.871 341.747C417.152 342.524 418.343 343.418 419.436 344.419C419.884 343.481 420.448 342.623 421.156 341.845C420.063 341.783 418.97 341.595 417.913 341.273C417.295 341.47 416.614 341.631 415.88 341.738L415.871 341.747ZM348.346 341.854C349.484 342.578 350.541 343.4 351.508 344.312C351.929 343.454 352.476 342.605 353.192 341.792C351.732 341.81 350.299 341.827 348.875 341.854C348.875 341.854 348.418 341.854 348.346 341.854ZM215.948 338.003C218.286 338.003 221.063 338.03 223.885 338.199C229.224 338.53 233.775 340.103 237.34 342.694C237.402 342.596 237.474 342.498 237.537 342.408C238.907 340.487 240.806 339.173 243.207 338.476C243.01 338.298 242.813 338.11 242.625 337.913C239.06 334.223 239.06 329.799 239.06 324.205C239.06 319.987 239.06 316.466 240.574 313.392C239.06 310.408 239.06 307.03 239.06 302.991V302.544C239.06 300.497 239.06 298.612 239.23 296.869C237.868 298.228 236.516 299.577 235.163 300.917C223.518 312.526 211.469 324.527 199.663 336.367C198.346 337.681 196.949 338.762 195.462 339.602C195.9 339.861 196.295 340.147 196.644 340.424C198.731 338.736 201.365 337.878 204.491 337.878C204.787 337.878 205.091 337.878 205.414 337.904C207.474 338.003 209.543 338.021 211.308 338.021H215.93L215.948 338.003ZM377.191 341.944C377.244 341.881 377.298 341.818 377.352 341.756C377.235 341.756 377.128 341.756 377.011 341.756C377.074 341.818 377.128 341.881 377.191 341.944ZM431.753 338.137C434.906 338.199 438.087 338.235 441.24 338.253C440.595 337.744 439.968 337.181 439.367 336.564C437.764 334.929 436.143 333.293 434.512 331.658C434.297 334.366 433.231 336.332 432.183 337.627C432.04 337.797 431.897 337.967 431.753 338.128V338.137ZM396.146 338.047C398.779 338.047 401.377 338.065 404.064 338.235C402.497 336.537 401.493 334.285 401.135 331.578C401.131 331.582 401.126 331.586 401.122 331.591C399.37 333.347 397.61 335.112 395.886 336.859C395.465 337.279 395.044 337.681 394.614 338.047H396.146ZM131.789 338.056C132.729 338.056 133.652 338.056 134.557 338.056C136.76 338.056 138.865 338.038 140.899 338.003C140.326 337.538 139.77 337.029 139.233 336.475C137.638 334.848 136.017 333.213 134.395 331.578C134.225 334.312 133.186 336.287 132.174 337.574C132.049 337.735 131.923 337.887 131.789 338.038V338.056ZM127.22 217.355C127.217 217.359 127.213 217.362 127.21 217.366C100.244 245.11 82.7164 278.126 75.0852 315.546C75.6764 315.448 76.2587 315.341 76.8409 315.242C78.7131 314.921 79.4029 314.501 80.1016 313.795C84.7149 309.085 89.4537 304.376 94.0312 299.827C98.7968 295.091 103.733 290.185 108.489 285.315C111.75 281.973 115.557 280.284 119.794 280.284C120.726 280.284 121.702 280.364 122.679 280.534C124.085 280.775 125.5 281.008 126.907 281.249C126.656 277.147 127.364 273.626 129.03 270.695C127.856 268.98 127.059 266.629 127.023 263.475V263.269C126.96 258.194 126.916 254.422 128.949 250.857C126.934 247.881 126.978 244.548 127.005 243.172V242.707C127.006 242.683 127.006 242.659 127.006 242.634C127.077 238.104 127.131 234.674 128.913 231.403C127.785 229.696 127.041 227.373 127.014 224.281V223.887C127.014 223.866 127.014 223.844 127.014 223.823C126.996 221.415 126.98 219.303 127.21 217.366C127.21 217.362 127.211 217.359 127.211 217.355H127.22ZM415.638 280.284C419.893 280.284 423.682 281.937 426.898 285.208C430.374 288.737 433.984 292.303 437.477 295.752C437.649 295.922 437.821 296.092 437.993 296.262C443.665 301.858 449.516 307.631 455.08 313.607C456.074 314.679 457.31 315.019 460.356 315.528C457.615 301.159 452.867 286.629 446.256 272.331C436.868 252.036 424.139 233.601 408.364 217.444C408.364 218.651 408.364 219.848 408.364 221.055C408.364 240.822 408.364 260.579 408.364 280.346C408.364 280.346 408.364 281.195 408.364 281.249C409.806 281.008 411.249 280.775 412.682 280.534C413.685 280.364 414.671 280.284 415.62 280.284H415.638ZM372.55 281.276V284.064C372.55 284.797 372.55 285.431 372.55 286.066C372.55 286.432 372.55 286.798 372.542 287.147C377.316 286.334 382.1 285.547 386.838 284.77C386.82 284.529 386.811 284.287 386.802 284.037V283.939C386.749 282.965 386.758 282.035 386.767 281.222V256.317C386.767 253.818 386.767 251.311 386.767 248.799C386.766 221.109 386.765 192.667 386.847 164.632C381.858 162.648 376.922 160.53 372.076 158.421C372.658 160.396 372.631 162.201 372.613 163.121V163.729C372.524 168.983 372.013 172.486 370.445 175.185C371.26 176.374 371.879 177.812 372.192 179.528C372.479 181.047 372.515 182.665 372.524 184.756C373.151 187.607 373.186 191.315 370.839 194.845C372.721 197.812 372.604 201.073 372.55 202.432C372.482 204.188 372.504 205.525 372.521 206.609C372.522 206.656 372.523 206.702 372.524 206.748C372.586 210.296 372.111 212.914 370.848 214.996C371.467 216.05 371.932 217.284 372.201 218.704C372.488 220.242 372.524 221.796 372.533 223.968C373.034 226.533 373.124 230.295 370.848 233.887C371.861 235.54 372.559 237.801 372.595 240.866V241.179C372.649 246.014 372.685 249.588 370.741 253.064C372.21 255.182 372.81 257.827 372.515 260.964C372.488 261.241 372.497 261.857 372.515 262.51V262.512C372.515 262.726 372.515 262.948 372.524 263.189C373.419 267.174 372.497 270.284 371.493 272.277C371.332 272.59 371.171 272.885 370.992 273.171C372.891 276.155 372.685 279.363 372.515 281.186L372.55 281.276ZM256.761 284.823C261.033 284.823 264.608 284.823 267.698 286.45C270.798 284.823 274.372 284.823 278.116 284.823H278.368C280.509 284.823 282.488 284.823 284.324 285.002C278.788 279.471 273.252 273.921 267.752 268.39C262.234 273.912 256.689 279.462 251.153 284.975C252.819 284.814 254.548 284.814 256.322 284.814H256.77L256.761 284.823ZM182.768 273.215C184.73 276.218 184.667 279.578 184.479 281.517C184.479 281.517 196.51 274.368 199.403 272.643C198.292 270.025 198.624 267.532 198.803 266.424C198.758 252.094 198.758 237.542 198.758 223.462C198.758 223.458 198.758 223.454 198.758 223.45V214.254C198.758 209.974 198.758 205.684 198.758 201.404C198.749 189.358 198.731 176.937 198.821 164.649C193.643 162.532 188.555 160.378 183.915 158.376C184.531 160.372 184.515 162.216 184.506 163.255C184.506 163.258 184.506 163.261 184.506 163.264V163.747C184.461 168.841 183.995 172.299 182.526 174.971C183.682 176.704 184.479 179.135 184.488 182.54V182.897C184.506 187.785 184.515 191.378 182.401 194.898C183.189 196.069 183.78 197.49 184.094 199.161C184.39 200.725 184.425 202.333 184.434 204.567C184.972 207.195 185.079 211.064 182.607 214.701C183.306 215.818 183.834 217.159 184.121 218.713C184.399 220.25 184.434 221.814 184.443 224.004C184.954 226.622 185.044 230.491 182.598 234.173C183.306 235.29 183.843 236.622 184.13 238.185C184.39 239.615 184.434 241.125 184.443 243.047C185.133 246.085 185.178 250.097 182.526 253.868C183.252 255.003 183.798 256.362 184.103 257.943C184.39 259.489 184.434 261.142 184.443 263.278C184.99 265.87 185.115 269.623 182.786 273.215H182.768ZM244.811 245.602C244.99 245.495 245.169 245.388 245.348 245.281C245.097 244.655 244.927 244.048 244.802 243.467C244.802 244.173 244.802 244.888 244.811 245.593V245.602ZM244.685 192.512C244.739 199.706 244.757 206.971 244.766 214.129C244.82 206.944 244.873 199.679 244.918 192.361C244.847 192.414 244.766 192.459 244.685 192.512ZM283.885 186.418C289.457 189.161 293.354 193.067 295.566 198.107C295.602 179.162 295.566 160.262 295.512 141.719C295.503 136.938 295.486 132.148 295.477 127.368C291.732 130.79 287.889 134.293 284.055 137.716C283.984 137.787 283.921 137.841 283.867 137.894C284.028 153.658 284.037 169.975 283.885 186.418ZM253.41 99.7458C253.007 102.034 252.927 104.661 253.115 107.744C253.249 109.906 253.348 112.069 253.437 114.24C253.437 109.263 253.419 104.419 253.41 99.7548V99.7458Z" fill="white"/>
<path d="M319.072 466.237C319.564 466.863 320.012 467.524 320.406 468.23C321.777 470.625 322.485 473.261 322.529 475.978C328.684 475.227 334.874 472.555 342.094 467.587C352.556 460.384 361.478 452.717 369.102 444.361C345.793 442.449 324.626 441.207 304.587 440.563C305.608 441.216 306.396 441.966 306.988 442.708C307.041 442.708 307.086 442.708 307.14 442.717L307.292 442.73C307.973 442.79 308.804 442.863 309.72 443.021C311.628 443.334 317.889 445.049 318.221 453.798V454.021C318.274 454.736 318.292 455.442 318.31 456.148L318.312 456.224C318.347 457.479 318.377 458.563 318.597 459.133C319.52 461.483 319.672 463.949 319.063 466.246L319.072 466.237Z" fill="white"/>
<path d="M403.007 425.56C408.687 426.346 414.339 427.168 419.947 428.044C419.338 426.471 418.97 424.568 418.997 422.253C419.051 415.694 419.06 409.063 419.051 403.46C415.378 406.534 410.595 408.348 404.978 408.625C405.014 410.216 404.978 411.744 404.942 413.156C404.897 414.738 404.862 416.23 404.933 417.58L404.934 417.588C404.997 418.864 405.17 422.376 403.016 425.56H403.007Z" fill="white"/>
<path d="M453.763 384.534C456.522 384.534 458.645 385.248 460.248 386.214C460.248 383.908 460.248 381.602 460.257 379.297C460.257 375.258 460.275 371.147 460.266 367.027C458.063 367.716 456.011 367.716 454.856 367.716C453.646 367.716 452.285 367.653 450.717 367.59C450.027 367.564 449.373 367.537 448.773 367.51V369.279C448.773 371.093 448.773 372.908 448.791 374.73C448.8 377.876 448.818 381.084 448.791 384.319C449.311 384.391 449.812 384.471 450.305 384.542L451.147 384.668C451.335 384.668 451.523 384.641 451.711 384.623C452.276 384.578 452.975 384.525 453.754 384.525L453.763 384.534Z" fill="white"/>
<path d="M431.753 338.137C434.906 338.199 438.087 338.235 441.24 338.253C440.595 337.744 439.968 337.181 439.367 336.564C437.764 334.929 436.143 333.293 434.512 331.658C434.297 334.366 433.231 336.332 432.183 337.627C432.04 337.797 431.897 337.967 431.753 338.128V338.137Z" fill="white"/>
<path d="M415.871 341.747C417.152 342.524 418.343 343.418 419.436 344.419C419.884 343.481 420.448 342.623 421.156 341.845C420.063 341.783 418.97 341.595 417.913 341.273C417.295 341.47 416.614 341.631 415.88 341.738L415.871 341.747Z" fill="white"/>
<path d="M396.146 338.047C398.779 338.047 401.377 338.065 404.064 338.235C402.497 336.537 401.493 334.285 401.135 331.578L401.122 331.591C399.37 333.347 397.61 335.112 395.886 336.859C395.465 337.279 395.044 337.681 394.614 338.047H396.146Z" fill="white"/>
<path d="M377.191 341.944L377.352 341.756H377.011C377.074 341.818 377.128 341.881 377.191 341.944Z" fill="white"/>
<path d="M348.346 341.854C349.484 342.578 350.541 343.4 351.508 344.312C351.929 343.454 352.476 342.605 353.192 341.792C351.732 341.81 350.299 341.827 348.875 341.854H348.346Z" fill="white"/>
<path d="M282.604 416.48C290.612 416.57 298.648 416.757 306.665 417.052C306.253 415.685 306.074 414.041 306.262 412.075V412.021L306.235 392.147L306.235 391.855C306.217 378.246 306.198 364.185 306.101 350.361C306.092 348.932 306.065 344.598 309.424 341.211C311.619 339.004 314.548 337.887 318.14 337.887C318.391 337.887 318.66 337.887 318.928 337.904C320.81 337.976 322.771 337.985 324.438 337.985H327.913C330.663 337.985 333.619 338.012 336.602 338.208C337.086 338.244 337.561 338.28 338.036 338.342C337.167 337.681 336.432 336.993 335.796 336.367C326.704 327.27 317.585 318.191 308.475 309.112C304.426 305.073 300.332 300.998 296.22 296.896C296.39 298.657 296.39 300.551 296.39 302.598C296.39 306.762 296.39 310.265 294.867 313.303C296.39 316.35 296.39 319.871 296.39 324.053C296.39 329.781 296.39 334.312 292.727 338.021C291.92 338.834 291.069 339.477 290.182 339.978C291.204 340.63 292.144 341.497 292.986 342.65C296.301 347.225 294.877 351.934 293.229 357.384L293.228 357.385L293.201 357.484C292.27 360.567 291.347 363.65 290.415 366.724L290.102 367.764C287.378 376.814 284.57 386.145 281.637 395.311C280.406 399.164 280.498 403.424 280.605 408.348L280.606 408.411L280.642 410.055C280.669 411.244 280.714 413.808 279.54 416.454C280.562 416.454 281.574 416.471 282.595 416.48H282.604Z" fill="white"/>
<path d="M335.693 418.59C340.117 418.893 344.522 419.233 348.911 419.599C349.959 419.688 350.998 419.778 352.046 419.867C350.752 416.894 350.729 413.512 350.702 409.51L350.702 409.465C350.702 409.465 350.648 401.628 350.63 398.796C347.02 401.834 342.291 403.711 336.656 404.211C336.71 406.043 336.728 408.036 336.549 410.091L336.602 410.466C337.112 413.973 336.631 416.607 335.693 418.59Z" fill="white"/>
<path d="M238.486 417.723C240.117 417.955 241.675 418.303 243.153 418.723L252.102 417.177C250.615 414.38 250.615 411.262 250.615 408.768V408.483C250.902 399.628 248.681 392.855 246.325 385.671L246.325 385.668L245.921 384.435C245.85 389.806 245.769 395.507 245.671 401.646C245.563 408.152 242.93 413.764 238.495 417.723H238.486Z" fill="white"/>
<path d="M223.079 455.809C225.497 457.364 227.388 460.241 227.719 464.602C228.006 468.391 228.265 472.162 228.498 475.754H231.445C231.544 473.216 232.225 470.759 233.479 468.507C233.533 468.409 233.586 468.319 233.64 468.221C232.485 465.594 232.198 462.538 231.875 459.017L231.831 458.57C231.49 454.87 231.795 451.403 232.073 448.347C232.216 446.712 232.359 445.192 232.395 443.78C231.014 443.842 224.026 444.149 221.618 444.256L221.448 444.263C221.457 444.343 221.466 444.424 221.484 444.504L221.49 444.547C221.989 448.445 222.463 452.14 223.079 455.818V455.809Z" fill="white"/>
<path d="M166.384 444.442C174.957 453.878 184.64 461.992 195.327 468.712L196.904 461.009L196.563 457.909L196.832 457.658C196.814 457.578 196.796 457.489 196.778 457.417L196.761 457.336C196.315 455.219 195.727 452.425 196.142 449.187C196.071 447.355 195.874 445.425 195.659 443.396C195.623 443.012 195.578 442.628 195.542 442.235C195.417 442.235 195.291 442.243 195.166 442.252C191.466 442.359 187.749 442.687 183.82 443.034L183.763 443.039C182.069 443.191 180.376 443.343 178.674 443.468C178.674 443.468 168.077 444.308 166.375 444.433L166.384 444.442Z" fill="white"/>
<path d="M66.8439 434.165C66.0825 435.318 65.2315 436.399 64.3088 437.418C65.7779 437.105 67.247 436.801 68.7251 436.497C67.9099 435.729 67.3008 434.916 66.8439 434.165Z" fill="white"/>
<path d="M94.8643 412.405C94.8643 413.871 94.8553 415.31 94.8374 416.722L94.8362 416.808C94.8008 419.493 94.7673 422.029 94.918 424.46C95.0792 427.195 94.6672 429.626 93.7176 431.681C99.5044 430.644 105.318 429.661 111.15 428.732C108.749 425.56 108.785 421.914 108.803 420.439C108.856 415.39 108.874 410.288 108.883 405.221C105.166 408.706 100.382 411.226 94.8732 412.397L94.8643 412.405Z" fill="white"/>
<path d="M51.4453 384.399C52.78 385.651 54.5626 386.964 56.9096 388.412C60.0807 390.369 62.777 392.683 64.9717 395.293V383.291C62.1948 384.569 59.4715 384.632 58.307 384.659H57.8591C56.8917 384.694 56.0586 384.712 55.333 384.712C54.4641 384.712 53.0487 384.712 51.4453 384.399Z" fill="white"/>
<path d="M61.8034 341.774C63.3126 342.915 64.6703 344.217 65.8675 345.67C66.3154 344.374 67.032 343.007 68.1607 341.774H61.8034Z" fill="white"/>
<path d="M94.3089 338.226C100.615 338.45 106.133 340.827 110.173 344.687C110.585 343.731 111.159 342.757 111.947 341.836C106.948 341.524 101.905 338.664 101.063 331.56C99.2715 333.338 97.4889 335.125 95.7063 336.913L95.6113 337.007C95.2753 337.343 94.8487 337.77 94.3178 338.226H94.3089Z" fill="white"/>
<path d="M144.822 379.887C146.659 379.887 148.621 380.289 150.376 381.209V378.805H150.977V377.822C150.977 373.81 150.995 369.735 150.986 365.642C149.857 365.955 148.576 366.152 147.107 366.152C146.74 366.152 146.345 366.143 145.933 366.116C145.136 366.062 144.258 366.036 143.264 366.036C141.999 366.036 140.711 366.075 139.347 366.117L139.089 366.125H139.018C139 371.076 138.955 375.883 138.892 380.253C140.379 380.19 141.795 380.119 143.147 379.976C143.73 379.913 144.267 379.887 144.805 379.887H144.822Z" fill="white"/>
<path d="M131.789 338.056H134.557C136.76 338.056 138.865 338.038 140.899 338.003C140.326 337.538 139.77 337.029 139.233 336.475C137.638 334.848 136.017 333.213 134.395 331.578C134.225 334.312 133.186 336.287 132.174 337.574C132.049 337.735 131.923 337.887 131.789 338.038V338.056Z" fill="white"/>
<path d="M127.21 217.366C100.244 245.11 82.7164 278.126 75.0852 315.546C75.6764 315.448 76.2587 315.341 76.8409 315.242C78.7131 314.921 79.4029 314.501 80.1016 313.795C84.7149 309.085 89.4537 304.376 94.0312 299.827C98.7968 295.091 103.733 290.185 108.489 285.315C111.75 281.973 115.557 280.284 119.794 280.284C120.726 280.284 121.702 280.364 122.679 280.534C124.085 280.775 125.5 281.008 126.907 281.249C126.656 277.147 127.364 273.626 129.03 270.695C127.856 268.98 127.059 266.629 127.023 263.475V263.269C126.96 258.194 126.916 254.422 128.949 250.857C126.934 247.881 126.978 244.548 127.005 243.172V242.707L127.006 242.634C127.077 238.104 127.131 234.674 128.913 231.403C127.785 229.696 127.041 227.373 127.014 224.281V223.887L127.014 223.823C126.996 221.415 126.98 219.303 127.21 217.366Z" fill="white"/>
<path d="M182.768 273.215C184.73 276.218 184.667 279.578 184.479 281.517C184.479 281.517 196.51 274.368 199.403 272.643C198.292 270.025 198.624 267.532 198.803 266.424C198.758 252.094 198.758 237.542 198.758 223.462V223.45V214.254V201.404C198.749 189.358 198.731 176.937 198.821 164.649C193.643 162.532 188.555 160.378 183.915 158.376C184.531 160.372 184.515 162.216 184.506 163.255L184.506 163.264V163.747C184.461 168.841 183.995 172.299 182.526 174.971C183.682 176.704 184.479 179.135 184.488 182.54V182.897C184.506 187.785 184.515 191.378 182.401 194.898C183.189 196.069 183.78 197.49 184.094 199.161C184.39 200.725 184.425 202.333 184.434 204.567C184.972 207.195 185.079 211.064 182.607 214.701C183.306 215.818 183.834 217.159 184.121 218.713C184.399 220.25 184.434 221.814 184.443 224.004C184.954 226.622 185.044 230.491 182.598 234.173C183.306 235.29 183.843 236.622 184.13 238.185C184.39 239.615 184.434 241.125 184.443 243.047C185.133 246.085 185.178 250.097 182.526 253.868C183.252 255.003 183.798 256.362 184.103 257.943C184.39 259.489 184.434 261.142 184.443 263.278C184.99 265.87 185.115 269.623 182.786 273.215H182.768Z" fill="white"/>
<path d="M256.761 284.823C261.033 284.823 264.608 284.823 267.698 286.45C270.798 284.823 274.372 284.823 278.116 284.823H278.368C280.509 284.823 282.488 284.823 284.324 285.002C278.788 279.471 273.252 273.921 267.752 268.39C262.234 273.912 256.689 279.462 251.153 284.975C252.819 284.814 254.548 284.814 256.322 284.814H256.77L256.761 284.823Z" fill="white"/>
<path d="M215.948 338.003C218.286 338.003 221.063 338.03 223.885 338.199C229.224 338.53 233.775 340.103 237.34 342.694C237.402 342.596 237.474 342.498 237.537 342.408C238.907 340.487 240.806 339.173 243.207 338.476C243.01 338.298 242.813 338.11 242.625 337.913C239.06 334.223 239.06 329.799 239.06 324.205C239.06 319.987 239.06 316.466 240.574 313.392C239.06 310.408 239.06 307.03 239.06 302.991V302.544C239.06 300.497 239.06 298.612 239.23 296.869C237.868 298.228 236.516 299.577 235.163 300.917C223.518 312.526 211.469 324.527 199.663 336.367C198.346 337.681 196.949 338.762 195.462 339.602C195.9 339.861 196.295 340.147 196.644 340.424C198.731 338.736 201.365 337.878 204.491 337.878C204.787 337.878 205.091 337.878 205.414 337.904C207.474 338.003 209.543 338.021 211.308 338.021H215.93L215.948 338.003Z" fill="white"/>
<path d="M262.422 341.595C263.694 342.846 264.617 344.347 265.333 345.983C266.31 343.65 267.653 341.961 269.158 340.755C268.675 340.576 268.2 340.371 267.743 340.121C266.113 340.978 264.33 341.39 262.431 341.586L262.422 341.595Z" fill="white"/>
<path d="M186.705 377.519H186.701H186.71H186.705C188.692 377.519 190.563 377.966 192.192 378.805V372.47H192.496C192.496 370.012 192.505 367.537 192.505 365.044C191.457 365.321 190.275 365.482 188.931 365.482C188.636 365.482 188.322 365.482 187.991 365.455C187.767 365.446 187.543 365.437 187.319 365.437C186.416 365.437 185.378 365.516 184.28 365.6L184.076 365.616C183.091 365.696 182.016 365.776 180.887 365.821C181.012 369.869 180.986 373.899 180.923 377.858C182.499 377.778 183.986 377.697 185.438 377.572C185.884 377.537 186.303 377.519 186.705 377.519Z" fill="white"/>
<path d="M244.811 245.602L245.348 245.281C245.097 244.655 244.927 244.048 244.802 243.467C244.802 244.173 244.802 244.888 244.811 245.593V245.602Z" fill="white"/>
<path d="M244.685 192.512C244.739 199.706 244.757 206.971 244.766 214.129C244.82 206.944 244.873 199.679 244.918 192.361C244.847 192.414 244.766 192.459 244.685 192.512Z" fill="white"/>
<path d="M283.885 186.418C289.457 189.161 293.354 193.067 295.566 198.107C295.602 179.162 295.566 160.262 295.512 141.719C295.503 136.938 295.486 132.148 295.477 127.368C291.732 130.79 287.889 134.293 284.055 137.716C283.984 137.787 283.921 137.841 283.867 137.894C284.028 153.658 284.037 169.975 283.885 186.418Z" fill="white"/>
<path d="M253.41 99.7458C253.007 102.034 252.927 104.661 253.115 107.744C253.249 109.906 253.348 112.069 253.437 114.24C253.437 109.263 253.419 104.419 253.41 99.7548V99.7458Z" fill="white"/>
<path d="M372.55 281.276V284.064V286.066C372.55 286.432 372.55 286.798 372.542 287.147C377.316 286.334 382.1 285.547 386.838 284.77C386.82 284.529 386.811 284.287 386.802 284.037V283.939C386.749 282.965 386.758 282.035 386.767 281.222V256.317L386.767 248.799C386.766 221.109 386.765 192.667 386.847 164.632C381.858 162.648 376.922 160.53 372.076 158.421C372.658 160.396 372.631 162.201 372.613 163.121V163.729C372.524 168.983 372.013 172.486 370.445 175.185C371.26 176.374 371.879 177.812 372.192 179.528C372.479 181.047 372.515 182.665 372.524 184.756C373.151 187.607 373.186 191.315 370.839 194.845C372.721 197.812 372.604 201.073 372.55 202.432C372.482 204.188 372.504 205.525 372.521 206.609L372.524 206.748C372.586 210.296 372.111 212.914 370.848 214.996C371.467 216.05 371.932 217.284 372.201 218.704C372.488 220.242 372.524 221.796 372.533 223.968C373.034 226.533 373.124 230.295 370.848 233.887C371.861 235.54 372.559 237.801 372.595 240.866V241.179C372.649 246.014 372.685 249.588 370.741 253.064C372.21 255.182 372.81 257.827 372.515 260.964C372.488 261.241 372.497 261.857 372.515 262.51V262.512C372.515 262.726 372.515 262.948 372.524 263.189C373.419 267.174 372.497 270.284 371.493 272.277C371.332 272.59 371.171 272.885 370.992 273.171C372.891 276.155 372.685 279.363 372.515 281.186L372.55 281.276Z" fill="white"/>
<path d="M415.638 280.284C419.893 280.284 423.682 281.937 426.898 285.208C430.374 288.737 433.984 292.303 437.477 295.752L437.993 296.262C443.665 301.858 449.516 307.631 455.08 313.607C456.074 314.679 457.31 315.019 460.356 315.528C457.615 301.159 452.867 286.629 446.256 272.331C436.868 252.036 424.139 233.601 408.364 217.444V221.055V280.346V281.249C409.806 281.008 411.249 280.775 412.682 280.534C413.685 280.364 414.671 280.284 415.62 280.284H415.638Z" fill="white"/>
<path d="M204.665 451.867C204.548 445.642 203.068 439.497 203.714 433.227C204.001 430.423 204.063 429.235 208.217 429.36C216.319 429.601 224.528 429.012 232.674 428.529C238.416 428.19 243.234 430.414 248.276 432.307C248.823 432.513 249.343 432.852 249.792 433.236C256.242 438.649 263.518 441.256 272.06 440.051C274.204 439.747 276.536 439.631 275.029 443.346C274.302 445.142 274.679 447.49 274.966 449.527C275.173 450.965 273.594 453.823 276.635 453.528C278.42 453.358 280.439 451.947 280.565 449.268C280.618 448.151 278.654 445.981 281.498 445.847C284.431 445.713 282.547 447.982 282.682 449.098C282.978 451.652 286.755 453.34 289.5 451.402C293.026 448.919 299.046 449.357 299.737 450.465C302.007 454.109 304.941 453.448 307.955 453.948C309.032 454.126 308.933 455.609 308.996 456.663C309.148 459.289 308.915 461.834 309.974 464.504C310.871 466.782 308.771 468.184 306.367 468.282C303.981 468.372 301.585 468.282 299.199 468.318C298.364 468.336 297.072 468.122 297.09 469.292C297.108 470.14 298.221 470.56 299.199 470.56C300.697 470.56 302.186 470.578 303.685 470.587C311.876 470.631 315.751 476.919 311.606 483.966C309.974 486.743 310.673 486.547 313.257 486.886C326.015 488.565 336.673 484.109 346.955 477.044C361.094 467.327 373.609 456.064 383.936 442.409C384.591 441.542 386.053 440.676 385.398 439.426C384.797 438.273 383.254 438.747 382.123 438.649C342.998 435.183 303.819 432.924 264.523 433.281C260.477 433.317 258.064 430.593 254.995 428.922C254.726 428.78 254.663 428.262 254.502 427.913C255.211 427.788 255.911 427.565 256.619 427.565C265.142 427.538 273.665 427.476 282.188 427.565C304.142 427.806 326.069 428.824 347.951 430.646C378.858 433.227 409.604 437.148 440.143 442.641C461.092 446.41 481.897 450.831 502.532 456.002C503.384 456.216 504.595 455.922 505.125 457.056C504.254 457.234 503.393 457.502 502.505 457.583C488.105 459.003 473.724 460.53 459.306 461.718C454.704 462.093 451.734 463.451 449.025 467.693C416.261 519.03 370.057 551.656 310.063 564.097C262.011 574.064 215.664 567.776 171.81 546.109C135.314 528.077 106.3 501.417 85.1445 466.666C82.6414 462.557 79.5193 462.12 75.6615 461.763C61.1185 460.405 46.5754 458.994 32.0324 457.574C31.1801 457.493 30.3547 457.172 29.5114 456.967C30.3368 456.663 31.1353 456.27 31.9876 456.064C58.9742 449.259 86.2211 443.757 113.728 439.435C140.401 435.246 167.172 432.022 194.123 430.262C195.235 430.191 197.29 428.413 197.46 431.307C197.586 433.379 197.738 435.371 194.446 435.469C188.785 435.63 183.142 436.273 177.498 436.719C169.02 437.38 160.542 438.068 152.064 438.693C149.516 438.881 148.412 439.336 150.422 441.989C164.795 460.932 182.603 475.695 204.046 486.136C205.346 486.77 206.602 486.815 207.939 486.815C218.553 486.815 229.166 486.815 239.789 486.797C241.547 486.797 243.844 487.717 241.726 484.144C237.483 476.981 241.538 470.703 249.917 470.515C252.08 470.462 254.69 471.81 256.422 469.256C254.314 468.282 252.08 468.863 249.917 468.854C241.062 468.8 241.215 468.836 240.381 459.878C239.798 453.608 241.699 447.473 240.686 441.131C240.165 437.88 239.062 436.684 236.056 436.8C228.448 437.112 220.849 437.487 213.241 437.764C211.474 437.827 210.909 438.443 211.169 440.229C212.129 446.83 212.811 453.474 213.932 460.039C214.3 462.191 213.295 465.934 217.817 465.46C217.943 465.451 218.319 466.728 218.373 467.425C218.732 472.087 219.037 476.758 219.342 481.42C219.387 482.126 220.428 484.153 218.284 482.608C214.327 479.75 210.397 476.812 207.105 473.168C206.208 472.176 204.808 470.73 205.777 469.72C208.029 467.363 205.759 465.585 205.535 463.567C206.145 463.013 206.746 462.459 207.356 461.906C209.034 460.887 209.841 459.646 209.168 457.529C208.37 455.02 207.957 452.385 207.302 449.822C206.872 448.142 206.324 446.49 205.831 444.829L205.616 450.063C205.311 450.67 204.997 451.286 204.691 451.894L204.665 451.867ZM267.349 560.667C273.307 560.364 279.282 560.176 285.23 559.72C289.24 559.417 293.242 558.836 297.216 558.184C363.776 547.386 413.56 512.528 447.302 454.716C451.376 447.732 451.25 447.66 442.879 446.428C440.816 446.124 438.654 446.088 436.707 445.436C433.495 444.365 432.051 445.597 430.481 448.366C421.132 464.924 409.361 479.634 395.312 492.504C394.119 493.603 393.221 497.059 390.198 494.156C387.255 491.325 389.911 490.209 391.499 488.744C404.732 476.535 415.857 462.647 424.891 447.115C425.394 446.249 426.973 445.079 425.672 444.195C424.64 443.489 422.801 443.114 421.661 444.677C421.231 445.276 420.926 445.963 420.54 446.597C412.609 459.601 403.35 471.56 392.423 482.242C385.82 488.699 385.972 488.646 380.015 481.67C377.88 479.17 377.736 477.758 380.374 475.401C390.306 466.523 398.595 456.216 405.952 445.142C407.549 442.73 408.276 441.328 404.337 441.212C401.063 441.122 397.788 440.676 394.54 440.212C392.226 439.881 390.808 440.56 389.346 442.525C360.932 480.634 323.126 502.185 275.262 504.57C224.725 507.089 183.061 488.253 151.086 449.509C144.985 442.114 139.665 438.881 130.46 441.105C126.997 441.944 126.988 442.516 128.738 445.133C135.224 454.796 142.446 463.853 150.727 472.069C157.366 478.661 157.241 478.544 151.346 485.797C149.328 488.279 148.314 487.922 146.214 485.984C133.555 474.257 122.843 461.003 114.069 446.204C112.894 444.213 111.431 442.927 109.511 444.043C107.269 445.356 109.655 446.731 110.301 447.839C119.317 463.388 130.604 477.151 143.882 489.289C145.658 490.914 146.546 491.906 144.564 494.156C142.114 496.943 141.253 494.174 140.159 493.174C125.687 480.072 113.728 464.978 104.003 448.107C103.213 446.731 102.998 444.552 100.333 445.034C95.9373 445.829 91.5054 446.517 87.0644 447.008C84.1576 447.33 83.7359 448.116 85.2163 450.759C125.077 521.566 186.336 557.247 267.358 560.667H267.349ZM253.443 463.397C256.601 463.227 260.639 464.719 260.98 459.298C261.015 458.699 261.733 457.931 262.334 457.61C267.834 454.752 265.761 449.491 265.062 445.767C264.452 442.543 259.903 444.945 257.176 444.338C255.292 443.927 254.17 444.891 253.479 446.696C252.151 450.143 250.617 453.519 249.2 456.94C247.417 461.233 248.832 463.385 253.443 463.397ZM299.836 456.332C298.876 456.332 298.275 456.404 297.682 456.323C293.887 455.797 292.255 456.815 292.308 461.2C292.362 465.88 295.09 465.148 297.853 465.156C299.046 465.156 300.257 465.014 301.433 465.183C305.344 465.737 305.802 463.942 306.035 460.387C306.439 454.082 301.971 457.118 299.845 456.341L299.836 456.332ZM242.345 440.372C242.875 444.758 243.189 448.902 245.611 452.492C246.042 453.135 246.302 453.43 246.733 452.59C248.15 449.83 250.68 447.035 250.59 444.32C250.519 442.248 247.45 439.988 244.552 439.033C242.668 438.416 242.031 438.684 242.345 440.363V440.372ZM276.805 483.162C270.113 483.162 263.411 483.162 256.718 483.18C256.153 483.18 255.579 483.376 255.013 483.483C255.417 484.332 256.198 483.948 256.817 483.992C269.826 484.984 282.834 484.993 295.843 483.992C296.489 483.939 297.261 484.269 297.709 483.483C297.144 483.376 296.57 483.18 296.005 483.18C289.608 483.162 283.211 483.162 276.805 483.162ZM267.628 449.893C267.628 450.777 267.61 451.661 267.628 452.546C267.672 453.966 267.26 455.627 269.664 455.582C272.095 455.538 271.521 453.787 271.575 452.429C271.638 450.813 271.647 449.187 271.575 447.562C271.512 446.195 272.086 444.338 269.772 444.24C267.107 444.123 267.735 446.16 267.645 447.678C267.601 448.41 267.645 449.152 267.636 449.893H267.628ZM218.418 430.539C218.418 430.539 218.418 430.512 218.418 430.494C215.601 430.494 212.793 430.476 209.976 430.512C209.285 430.521 208.208 430.503 207.993 430.878C207.446 431.861 208.585 432.352 209.106 433.004C209.931 434.04 211.008 434.245 212.29 434.013C217.243 433.111 222.195 432.272 227.147 431.37C227.668 431.271 228.152 430.95 228.655 430.735C228.063 430.673 227.479 430.557 226.887 430.548C224.07 430.53 221.244 430.548 218.427 430.548L218.418 430.539ZM275.89 482.072C280.197 482.072 284.503 482.072 288.801 482.063C289.384 482.063 289.958 481.92 290.541 481.84C290.039 481.733 289.536 481.527 289.034 481.527C280.574 481.51 272.113 481.51 263.653 481.527C263.142 481.527 262.639 481.724 262.128 481.831C262.711 481.911 263.285 482.054 263.868 482.054C267.879 482.072 271.88 482.063 275.89 482.063V482.072ZM276.348 476.767C280.206 476.767 284.055 476.776 287.912 476.758C288.496 476.758 289.07 476.588 289.644 476.508C289.15 476.392 288.657 476.169 288.164 476.169C280.304 476.142 272.445 476.142 264.586 476.16C264.075 476.16 263.563 476.383 263.043 476.499C263.617 476.597 264.2 476.767 264.775 476.776C268.632 476.803 272.49 476.785 276.339 476.776L276.348 476.767ZM276.007 474.168C278.833 474.168 281.659 474.195 284.476 474.15C285.14 474.141 285.795 473.873 286.45 473.73C285.885 473.614 285.311 473.391 284.745 473.391C279.093 473.364 273.45 473.373 267.798 473.4C267.287 473.4 266.775 473.668 266.264 473.811C266.838 473.927 267.403 474.132 267.977 474.141C270.651 474.177 273.324 474.159 276.007 474.168ZM267.699 457.333C266.605 457.467 264.9 457.002 264.855 458.556C264.81 460.101 266.488 459.932 267.61 459.851C268.803 459.762 270.741 460.235 270.651 458.378C270.579 456.877 268.776 457.529 267.699 457.333ZM243.287 478.178C242.031 477.133 244.759 475.49 243.207 474.99C242.301 474.695 242.13 477.098 241.762 478.321C241.412 479.509 242.265 481.545 242.435 481.492C244.221 480.938 242.507 479.384 243.296 478.178H243.287ZM310.808 479.464C310.225 477.875 311.131 475.847 309.274 474.668C309.175 474.981 308.96 475.311 308.996 475.597C309.292 477.633 309.633 479.661 309.965 481.697C310.853 481.17 310.682 480.268 310.799 479.464H310.808ZM210.855 464.647C210.685 463.897 210.774 462.754 209.626 462.781C209.088 462.79 208.199 463.522 208.101 464.04C207.93 464.96 208.774 465.648 209.599 465.934C210.577 466.273 210.756 465.469 210.855 464.656V464.647Z" fill="#1A335C"/>
<path d="M475.707 335.028C467.785 335.028 459.854 334.939 451.932 335.082C449.339 335.126 447.5 334.367 445.67 332.501C437.2 323.891 428.525 315.496 420.065 306.886C418.19 304.984 417.212 304.796 415.229 306.832C406.697 315.576 397.914 324.087 389.328 332.786C387.749 334.385 386.224 335.1 383.927 335.073C372.12 334.957 360.305 334.921 348.489 335.109C345.645 335.153 343.815 334.162 341.904 332.26C318.165 308.565 294.309 284.986 270.642 261.22C267.942 258.514 266.596 258.738 264.075 261.256C240.381 284.969 216.534 308.538 192.831 332.251C190.741 334.341 188.686 335.118 185.806 335.082C174.448 334.948 163.081 334.939 151.714 335.091C148.96 335.126 147.031 334.421 145.075 332.429C136.624 323.811 127.912 315.442 119.479 306.814C117.487 304.778 116.5 304.948 114.625 306.868C106.075 315.594 97.3459 324.159 88.6973 332.795C87.4233 334.064 86.248 335.091 84.1486 335.082C67.1025 334.984 50.0564 335.019 33.0103 335.01C32.4451 335.01 31.8889 334.903 31.3237 334.85C31.835 334.662 32.3374 334.394 32.8668 334.296C47.8045 331.581 62.7423 328.83 77.707 326.222C80.8919 325.668 83.5027 324.597 85.8353 322.221C95.2376 312.655 104.891 303.331 114.275 293.748C116.177 291.801 117.99 291.104 120.573 291.542C137.458 294.391 154.361 297.133 171.227 300.053C173.461 300.438 174.951 299.473 176.601 298.499C205.517 281.343 234.459 264.212 263.303 246.948C266.237 245.198 268.381 245.135 271.351 246.913C300.186 264.186 329.119 281.289 357.99 298.499C360.143 299.786 362.045 300.196 364.665 299.741C381.083 296.856 397.564 294.293 414.018 291.551C416.602 291.122 418.459 291.747 420.352 293.668C429.664 303.117 439.372 312.191 448.415 321.872C452.282 326.008 457.046 326.133 461.738 327.026C475.043 329.562 488.393 331.875 501.724 334.287C502.263 334.385 502.765 334.617 503.285 334.796C502.756 334.867 502.227 335.01 501.697 335.01C493.022 335.028 484.355 335.019 475.68 335.01L475.707 335.028Z" fill="#1A335C"/>
<path d="M216.337 177.49C216.337 149.258 216.399 121.018 216.265 92.7861C216.247 89.4995 217.279 87.3113 219.593 85.0696C230.072 74.8969 240.237 64.3848 250.815 54.3193C255.067 50.2734 258.234 45.9864 259.131 40.1186C259.508 37.6447 260.361 35.2332 261.015 32.8039C261.159 32.268 261.428 31.7679 261.634 31.2588C261.787 31.8751 262.065 32.4913 262.065 33.1165C262.092 46.3437 262.236 59.5709 262.002 72.798C261.939 76.2098 263.043 78.2104 265.842 79.9966C270.741 83.1136 275.289 86.7754 280.215 89.8388C282.493 91.2589 283.032 92.8755 282.996 95.2958C282.888 103.468 282.924 111.64 282.96 119.803C282.96 120.759 282.377 122.072 283.543 122.625C284.71 123.179 285.391 121.947 286.136 121.313C292.264 116.115 298.337 110.845 304.51 105.683C305.326 104.995 306.08 103.45 307.354 104.147C307.865 104.432 307.74 106.031 307.74 107.031C307.767 117.133 307.865 127.243 307.686 137.344C307.641 140.166 308.305 142.23 310.781 143.659C317.106 147.294 318.703 152.599 318.613 159.869C318.174 194.191 318.425 228.523 318.38 262.855C318.38 264.07 319.152 265.811 317.725 266.374C316.98 266.669 315.689 265.427 314.594 265.034C305.757 261.881 303.792 255.763 303.909 246.618C304.465 202.64 304.169 158.645 304.115 114.659C304.115 113.319 305.075 111.327 303.326 110.72C302.052 110.274 301.208 112.104 300.248 112.971C292.721 119.75 285.293 126.636 277.739 133.379C275.612 135.281 274.536 137.201 274.563 140.229C274.733 156.725 274.733 173.221 274.563 189.717C274.536 192.78 275.343 194.906 278.133 196.067C286.549 199.568 289.133 205.623 288.298 214.635C287.365 224.656 288.101 234.829 288.074 244.93C288.074 246.082 288.271 247.85 287.661 248.252C286.396 249.074 285.302 247.556 284.198 246.913C279.434 244.153 274.634 241.438 269.996 238.482C268.067 237.249 266.677 237.222 264.784 238.499C261.832 240.491 258.602 242.063 255.579 243.956C253.82 245.055 253.067 245.162 253.093 242.697C253.3 221.155 253.461 199.622 253.578 178.08C253.596 175.552 254.269 175.793 256.018 176.981C257.83 178.205 259.571 181.438 261.249 180.464C263.312 179.267 262.02 175.9 262.029 173.498C262.074 143.632 262.029 113.757 261.948 83.8906C261.948 82.676 262.72 80.9701 261.249 80.3092C259.993 79.7465 259.347 81.4435 258.342 81.9883C246.768 88.1687 242.964 97.2518 243.763 110.604C245.091 132.664 243.889 154.867 244.185 177.008C244.247 181.902 242.893 185.278 238.82 187.654C236.047 189.27 235.285 191.53 235.312 194.692C235.464 213.715 235.33 232.739 235.473 251.753C235.5 254.799 234.639 256.71 231.911 258.157C227.838 260.309 223.963 262.828 219.961 265.106C218.965 265.668 217.952 267.017 216.83 266.383C215.727 265.758 216.373 264.221 216.373 263.105C216.337 240.223 216.346 217.332 216.346 194.45C216.346 188.806 216.346 183.152 216.346 177.508L216.337 177.49Z" fill="#C01D2E"/>
<path d="M469.148 391.733C469.148 378.8 469.229 365.877 469.086 352.944C469.05 350.077 469.758 349.05 472.773 349.211C477.393 349.47 482.041 349.247 486.679 349.283C496.359 349.363 502.388 354.275 503.214 363.814C504.201 375.21 503.815 386.678 503.384 398.11C503.223 402.557 501.141 406.425 497.104 408.193C493.668 409.702 494.547 411.328 495.534 413.623C499.203 422.206 502.72 430.861 506.506 439.399C507.771 442.266 506.623 442.4 504.371 441.908C502.334 441.462 500.316 440.596 498.279 440.551C495.319 440.488 494.179 438.917 493.282 436.451C490.483 428.797 487.531 421.197 484.58 413.605C484.14 412.462 484.059 410.399 482.471 410.747C480.955 411.087 481.753 413.043 481.736 414.248C481.655 420.634 481.502 427.038 481.789 433.415C481.942 436.782 480.515 437.032 477.869 436.568C469.346 435.067 469.337 435.094 469.337 426.502C469.337 414.909 469.337 403.317 469.337 391.733C469.274 391.733 469.211 391.733 469.148 391.733ZM491.568 380.721C491.568 380.721 491.551 380.721 491.542 380.721C491.542 376.13 491.802 371.521 491.47 366.957C491.138 362.403 487.881 361.509 483.808 361.652C479.376 361.813 481.287 365.002 481.278 366.824C481.233 376.576 481.484 386.329 481.655 396.082C481.673 397.172 481.242 398.369 482.812 399.056C487.181 400.977 491.416 398.44 491.542 393.582C491.658 389.295 491.568 384.999 491.568 380.703V380.721Z" fill="#C01D2E"/>
<path d="M38.7342 374.96C36.5003 386.249 42.6548 392.706 51.5009 398.154C60.6071 403.763 63.5946 412.435 61.9259 422.76C60.5622 431.137 55.6637 436.612 47.67 439.461C35.6031 443.757 27.0262 437.863 26.9365 425.189C26.9365 424.894 26.9365 424.591 26.9365 424.296C26.9186 415.249 26.9365 415.329 35.7198 413.918C38.0883 413.534 39.0931 413.963 38.9495 416.463C38.8329 418.535 38.8239 420.634 38.9854 422.697C39.1738 425.118 39.5596 427.583 42.7804 427.824C45.6962 428.038 48.1544 427.225 49.3297 424.278C51.0074 420.054 50.4063 416.169 47.4905 412.632C44.8888 409.47 41.3898 407.452 38.1062 405.139C30.6777 399.896 26.5777 392.983 26.8917 383.659C27.098 377.577 26.8558 371.477 26.9455 365.386C27.098 354.891 34.8495 347.452 45.2566 347.684C55.556 347.916 62.1771 354.865 62.2309 365.484C62.2399 367.86 61.9708 370.271 62.2937 372.602C62.85 376.55 61.1992 377.782 57.4132 377.871C50.2538 378.041 50.2628 378.193 50.2538 371.084C50.2538 369.003 50.3615 366.913 50.1551 364.85C49.8591 361.884 47.8494 360.304 45.0323 360.295C42.3857 360.295 39.8018 361.215 39.425 364.323C38.9944 367.842 38.9585 371.405 38.7432 374.951L38.7342 374.96Z" fill="#C01D2E"/>
<path d="M268.166 579.039C205.983 577.744 153.087 556.63 109.269 513.894C97.0857 502.016 86.4274 488.842 77.6263 474.257C77.0072 473.221 75.1232 471.828 76.3882 471.042C77.8864 470.113 80.1204 470.399 81.4123 472.462C82.9016 474.847 84.5075 477.169 86.1224 479.482C119.111 526.8 163.808 557.398 220.374 569.447C289.159 584.094 351.342 568.437 406.446 525.282C424.263 511.331 439.165 494.522 451.555 475.57C452.766 473.722 453.286 470.908 456.301 470.73C457.18 470.676 458.454 470.524 458.858 470.997C459.504 471.739 458.418 472.507 457.97 473.212C450.442 485.386 441.839 496.764 432.015 507.178C396.083 545.279 352.051 568.259 300.212 576.547C297.27 577.02 294.3 577.378 291.331 577.583C283.292 578.146 275.244 578.592 268.175 579.03L268.166 579.039Z" fill="#C01D2E"/>
<path d="M200.977 383.561C200.977 373.316 201.058 363.063 200.923 352.819C200.888 350.077 201.408 348.854 204.53 349.006C210.64 349.3 216.794 348.925 222.895 349.3C231.911 349.863 236.792 355.141 236.747 364.019C236.684 377.228 236.514 390.438 236.299 403.647C236.173 410.935 231.068 416.142 222.805 417.017C216.435 417.687 209.994 417.687 203.606 418.196C201.076 418.401 200.618 417.392 200.636 415.186C200.717 404.647 200.672 394.099 200.672 383.561C200.771 383.561 200.87 383.561 200.968 383.561H200.977ZM213.188 383.06H213.17C213.17 389.741 213.017 396.431 213.277 403.102C213.349 404.88 211.277 408.389 215.861 408.139C219.593 407.934 224.007 408.318 224.106 403.004C224.357 389.643 224.465 376.282 224.187 362.921C224.079 357.731 219.504 358.634 216.014 358.419C212.057 358.169 213.25 361.081 213.224 363.028C213.125 369.708 213.188 376.389 213.188 383.069V383.06Z" fill="#C01D2E"/>
<path d="M73.4903 391.742C73.4903 378.818 73.5711 365.895 73.4275 352.971C73.4006 350.14 74.0825 349.077 77.1059 349.22C82.4799 349.47 87.8719 349.175 93.2459 349.336C101.652 349.586 107.574 355.463 107.717 363.76C107.843 371.182 107.349 378.64 107.789 386.044C108.48 397.627 100.046 405.246 89.5585 406.246C86.0237 406.585 85.0099 407.729 85.1714 411.105C85.4316 416.445 85.0009 421.813 85.3239 427.145C85.5392 430.628 84.2114 431.798 80.9368 432.218C73.2481 433.2 73.266 433.326 73.266 425.618C73.266 414.329 73.266 403.031 73.266 391.742H73.4903ZM85.3419 377.889C85.3419 382.641 85.306 387.383 85.3688 392.135C85.3867 393.197 84.8664 394.537 86.5261 395.1C89.6393 396.154 94.798 393.876 95.1837 390.67C96.2693 381.819 96.0809 372.879 95.3542 364.037C95.0133 359.902 90.8774 360.473 87.7821 360.438C84.1397 360.402 85.4585 363.224 85.3957 364.975C85.2342 369.271 85.3419 373.576 85.3419 377.88V377.889Z" fill="#C01D2E"/>
<path d="M418.1 376.326C418.1 379.586 418.118 382.855 418.1 386.115C418.037 396.448 412.43 402.361 402.076 401.834C396.747 401.566 395.061 402.95 395.671 408.166C396.137 412.114 395.608 416.178 395.814 420.17C395.949 422.867 395.276 423.707 392.36 423.51C383.712 422.912 383.738 423.064 383.685 414.552C383.55 394.091 383.46 373.629 383.137 353.168C383.084 349.765 384.07 348.818 387.39 349.015C392.898 349.336 398.443 348.97 403.943 349.372C412.376 349.979 417.795 355.918 417.983 364.323C418.073 368.324 418.001 372.334 418.001 376.335C418.037 376.335 418.073 376.335 418.118 376.335L418.1 376.326ZM395.671 375.112C395.671 379.122 395.59 383.132 395.716 387.133C395.769 388.794 394.657 391.367 398.021 391.277C400.901 391.197 405.046 392.188 405.324 388.178C405.889 379.908 405.88 371.548 405.306 363.278C405.001 358.937 400.497 359.366 397.393 359.437C394.19 359.518 395.868 362.411 395.76 363.983C395.5 367.672 395.68 371.396 395.68 375.112H395.671Z" fill="#C01D2E"/>
<path d="M427.879 395.386C427.296 378.032 428.238 365.412 427.17 352.819C426.946 350.202 427.628 349.166 430.525 349.229C439.031 349.416 447.554 349.416 456.059 349.229C458.885 349.166 459.522 350.06 459.531 352.739C459.558 361.215 459.674 361.215 451.017 360.84C443.481 360.512 439.715 364.052 439.721 371.459C439.721 378.139 439.811 384.82 439.677 391.492C439.623 393.974 440.421 394.939 442.969 394.939C445.338 394.939 447.715 395.368 450.075 395.707C452.219 396.02 455.242 394.787 456.337 396.841C457.862 399.717 456.965 403.245 456.911 406.487C456.884 408.157 455.512 407.595 454.552 407.496C450.541 407.103 446.54 406.728 442.539 406.264C440.412 406.014 439.811 406.603 439.838 408.916C439.919 418.66 439.802 418.66 449.779 419.946C450.514 420.045 451.25 420.179 451.986 420.313C459.54 421.634 461.164 423.974 460.051 431.602C459.764 433.602 458.58 432.968 457.458 432.79C448.648 431.37 439.856 429.842 431.019 428.601C428.202 428.208 427.825 426.859 427.843 424.457C427.942 413.186 427.888 401.905 427.888 395.377L427.879 395.386Z" fill="#C01D2E"/>
<path d="M349.341 374.147C349.341 376.818 349.359 379.488 349.341 382.158C349.278 391.849 343.985 397.225 334.215 397.529C327.1 397.752 327.127 397.752 327.37 404.665C327.45 407.041 327.576 409.434 327.325 411.783C327.109 413.838 328.733 416.999 326.194 417.732C322.839 418.696 319.071 418 315.59 417.169C314.45 416.901 314.944 415.356 314.944 414.382C314.89 393.751 314.917 373.12 314.773 352.489C314.755 349.72 315.608 348.925 318.308 349.023C324.122 349.247 329.971 348.925 335.767 349.318C343.985 349.872 348.776 354.856 349.242 363.019C349.458 366.716 349.278 370.441 349.278 374.147C349.296 374.147 349.323 374.147 349.341 374.147ZM326.894 372.995C326.894 376.996 326.894 381.006 326.894 385.008C326.894 386.329 326.715 387.535 328.724 387.892C334.448 388.928 337.229 386.785 337.256 380.979C337.274 377.72 337.256 374.451 337.256 371.191C337.256 368.672 337.4 366.136 337.22 363.626C336.871 358.75 333.282 358.312 329.478 358.375C325.234 358.446 327.127 361.724 326.948 363.653C326.652 366.743 326.867 369.878 326.867 372.995H326.894Z" fill="#C01D2E"/>
<path d="M117.541 387.526C117.541 375.951 117.631 364.376 117.478 352.801C117.442 349.979 118.106 348.943 121.13 349.015C129.482 349.202 137.853 349.265 146.205 348.979C151.364 348.8 149.417 352.328 149.713 354.695C150.054 357.419 149.929 359.616 145.972 359.357C141.522 359.071 137.018 359.527 132.551 359.437C130.146 359.393 129.5 360.313 129.509 362.581C129.527 371.477 129.428 380.381 129.276 389.277C129.24 391.643 130.362 391.876 132.371 391.688C136.076 391.331 139.827 391.393 143.532 391.009C145.981 390.759 146.564 391.643 146.636 393.939C146.842 400.637 146.941 400.637 140.23 401.53C139.495 401.629 138.759 401.798 138.023 401.852C128.648 402.557 128.756 402.548 129.222 411.667C129.357 414.284 130.424 414.534 132.577 414.239C137.001 413.65 141.459 413.302 145.891 412.721C148.341 412.4 149.301 413.007 149.319 415.695C149.372 422.778 149.498 422.671 142.195 423.43C135.09 424.171 127.984 425.02 120.923 426.1C117.801 426.582 117.128 425.582 117.164 422.671C117.299 410.953 117.218 399.226 117.218 387.508C117.326 387.508 117.433 387.508 117.541 387.508V387.526Z" fill="#C01D2E"/>
<path d="M159.412 389.893C159.412 377.443 159.483 364.984 159.349 352.534C159.322 349.783 160.156 348.979 162.902 349.023C171.263 349.184 179.625 349.256 187.977 348.988C192.077 348.854 191.279 351.417 191.153 353.614C191.037 355.776 192.553 358.946 187.977 358.705C184.281 358.509 180.495 359.375 176.844 358.973C171.909 358.428 171.03 360.411 171.272 364.814C171.658 371.914 171.461 379.059 171.326 386.177C171.281 388.66 171.936 389.67 174.592 389.384C178.288 388.982 182.02 388.955 185.725 388.634C188.049 388.428 188.883 389.652 188.354 391.518C187.69 393.849 190.642 397.601 186.129 398.404C182.63 399.03 178.988 399.324 175.444 399.128C171.757 398.931 170.707 400.333 171.254 403.665C171.398 404.531 171.371 405.451 171.254 406.326C170.833 409.533 171.398 411.06 175.39 410.328C179.75 409.515 184.308 409.81 188.758 409.381C190.615 409.202 190.983 409.774 191.153 411.471C191.844 418.5 191.422 419.062 184.164 419.679C177.041 420.277 169.9 420.759 162.794 421.536C159.762 421.867 158.649 421.259 158.739 417.937C158.972 408.595 158.82 399.244 158.82 389.893C159.017 389.893 159.214 389.893 159.412 389.893Z" fill="#C01D2E"/>
<path d="M259.203 410.908C259.67 396.538 254.511 386.856 251.882 376.603C249.792 368.458 247.181 360.438 244.615 352.417C243.808 349.881 244.131 349.077 246.984 348.997C256.449 348.729 256.422 348.631 258.485 358.008C260.298 366.243 262.155 374.469 264.039 382.685C264.227 383.507 264.757 384.257 265.133 385.043C265.519 384.266 266.084 383.525 266.273 382.703C268.471 373.04 270.839 363.412 272.652 353.677C273.342 349.988 274.67 348.863 278.385 348.952C286.728 349.157 286.755 348.961 284.297 357.071C280.484 369.646 276.77 382.239 272.759 394.751C270.893 400.575 271.225 406.469 271.342 412.373C271.396 415.347 270.723 416.481 267.457 416.437C259.203 416.329 259.203 416.499 259.203 410.908Z" fill="#C01D2E"/>
<path d="M127.589 203.266C128.576 206.222 125.275 208.294 122.789 210.768C92.896 240.464 73.607 275.814 65.4069 317.076C64.9224 319.533 59.6471 322.48 57.4042 321.453C55.9239 320.774 57.0094 319.649 57.162 318.773C63.0922 284.888 76.8726 254.406 97.7765 227.085C105.286 217.27 113.576 208.133 122.825 199.881C124.117 198.729 125.562 197.764 126.934 196.71C127.823 198.371 127.024 200.149 127.58 203.257L127.589 203.266Z" fill="#1A335C"/>
<path d="M407.415 201.354C407.415 201.203 407.388 201.051 407.415 200.908C407.755 199.541 406.589 197.773 407.998 196.916C408.401 196.665 410.043 198.273 411.03 199.139C421.572 208.428 430.893 218.842 439.237 230.086C458.535 256.094 471.266 284.987 477.205 316.782C477.465 318.175 479.331 320.372 476.918 321.337C474.146 322.444 469.794 319.8 469.301 317.148C466.331 301.054 461.19 285.656 454.309 270.804C443.642 247.788 429.144 227.487 410.94 209.768C408.572 207.463 407.394 204.659 407.406 201.354H407.415Z" fill="#1A335C"/>
<path d="M399.259 223.307C399.259 243.063 399.259 262.81 399.259 282.566C399.259 283.754 399.322 284.951 399.188 286.121C399.035 287.469 397.905 287.594 396.837 287.621C395.5 287.648 395.635 286.594 395.59 285.755C395.536 284.719 395.572 283.674 395.572 282.638C395.572 243.581 395.536 204.516 395.662 165.46C395.671 162.155 394.782 160.494 391.598 159.244C383.29 156.001 375.144 152.366 366.961 148.812C364.674 147.82 362.879 147.249 363.382 150.866C363.723 153.295 362.664 154.546 360.331 155.501C349.18 160.074 338.082 164.79 327.038 169.613C324.472 170.729 323.853 170.425 323.835 167.559C323.763 158.726 323.655 158.743 332.017 155.233C340.926 151.482 349.853 147.758 358.699 143.864C360.601 143.024 362.144 142.828 364.108 143.685C374.605 148.249 385.138 152.751 395.733 157.091C398.497 158.225 399.376 159.735 399.349 162.727C399.197 182.92 399.268 203.123 399.268 223.316L399.259 223.307Z" fill="#C01D2E"/>
<path d="M207.257 216.52C207.257 199.282 207.186 182.045 207.329 164.799C207.356 161.985 206.504 160.592 203.893 159.538C195.352 156.091 186.892 152.456 178.449 148.758C175.884 147.633 174.466 147.633 174.977 150.955C175.318 153.152 174.538 154.439 172.349 155.349C161.062 160.012 149.803 164.754 138.606 169.639C135.924 170.809 135.448 170.283 135.422 167.532C135.332 158.645 135.242 158.663 143.595 155.171C152.387 151.5 161.188 147.856 169.917 144.043C172.098 143.096 173.91 142.855 176.189 143.855C186.685 148.446 197.227 152.902 207.814 157.27C210.065 158.199 210.918 159.377 210.918 161.878C210.837 197.103 210.864 232.319 210.855 267.544C210.855 268.142 210.855 268.732 210.819 269.33C210.729 271.009 209.132 271.902 208.146 271.884C206.504 271.858 207.311 270.08 207.302 269.116C207.239 251.584 207.257 234.043 207.257 216.511V216.52Z" fill="#C01D2E"/>
<path d="M371.537 385.293C371.537 396.136 371.456 406.978 371.591 417.821C371.627 420.473 371.16 421.322 368.191 421.018C359.461 420.125 359.497 420.295 359.443 411.444C359.318 392.144 359.201 372.843 358.914 353.552C358.869 350.31 359.362 348.836 363.184 348.97C371.313 349.247 371.375 349.006 371.429 357.222C371.492 366.582 371.447 375.942 371.447 385.302C371.474 385.302 371.51 385.302 371.537 385.302V385.293Z" fill="#C01D2E"/>
<path d="M407.397 185.484C407.495 184.76 407.415 183.51 407.72 183.411C408.841 183.036 409.604 184.072 410.366 184.706C422.989 195.228 434.5 206.838 444.512 219.851C466.313 248.172 480.847 279.762 487.504 314.87C487.836 316.612 488.186 318.345 488.455 320.095C488.635 321.274 489.738 323.051 487.612 323.257C486.087 323.409 484.741 322.712 484.373 320.488C482.902 311.575 480.892 302.778 478.246 294.123C465.596 252.834 442.942 218.011 410.043 189.815C408.689 188.654 407.083 187.672 407.388 185.492L407.397 185.484Z" fill="#C01D2E"/>
<path d="M127.365 185.537C127.661 187.725 126.019 188.717 124.674 189.86C88.4999 220.78 64.7878 259.282 53.6092 305.385C52.3891 310.414 51.2227 315.478 50.4153 320.578C50.0475 322.882 48.4774 323.382 47.0509 323.221C44.817 322.962 46.1897 321.185 46.387 320.068C54.3718 273.09 75.177 232.623 108.919 198.782C113.952 193.736 119.479 189.172 124.808 184.412C125.436 183.849 126.163 182.911 127.051 183.429C127.437 183.653 127.275 184.805 127.365 185.537Z" fill="#C01D2E"/>
<path d="M174.968 227.3C176.18 231.363 173.65 233.292 169.469 234.936C159.241 238.946 149.193 243.403 139.127 247.815C136.426 248.994 135.35 249.074 135.404 245.519C135.529 236.856 135.377 236.91 143.46 233.569C152.1 230.006 160.695 226.353 169.289 222.691C174.986 220.262 174.968 220.226 174.968 227.309V227.3Z" fill="#C01D2E"/>
<path d="M135.484 183.429C134.228 179.339 136.857 177.428 140.984 175.802C151.212 171.783 161.296 167.398 171.362 162.986C174.394 161.655 175.067 162.28 175.031 165.478C174.96 173.659 175.112 173.694 167.459 176.981C158.855 180.67 150.225 184.278 141.603 187.913C137.518 189.64 135.475 188.148 135.475 183.438L135.484 183.429Z" fill="#C01D2E"/>
<path d="M323.889 183.483C322.615 179.41 325.234 177.347 329.334 175.713C339.553 171.631 349.673 167.299 359.766 162.923C362.538 161.717 363.507 161.807 363.454 165.263C363.328 173.56 363.516 173.623 355.998 176.856C347.251 180.616 338.459 184.269 329.675 187.949C325.824 189.562 323.895 188.074 323.889 183.483Z" fill="#C01D2E"/>
<path d="M363.373 188.181C364.728 192.387 361.812 194.165 357.792 195.772C347.87 199.738 338.055 203.971 328.285 208.294C325.1 209.705 323.655 210.009 323.799 205.623C324.068 197.675 323.853 197.701 331.335 194.584C340.1 190.932 348.83 187.198 357.586 183.51C361.444 181.884 363.373 183.438 363.373 188.172V188.181Z" fill="#C01D2E"/>
<path d="M323.889 222.459C322.633 218.538 325.145 216.618 329.128 215.037C339.49 210.929 349.745 206.552 359.946 202.06C362.879 200.765 363.516 201.381 363.4 204.346C362.996 214.867 365.32 211.857 355.72 216.118C346.614 220.155 337.292 223.718 328.24 227.871C324.409 229.631 323.261 229.023 323.871 224.951C323.96 224.37 323.88 223.763 323.88 222.45L323.889 222.459Z" fill="#C01D2E"/>
<path d="M363.373 227.246C364.575 231.301 362.081 233.248 357.864 234.891C347.628 238.892 337.561 243.34 327.504 247.77C324.526 249.083 323.79 248.547 323.826 245.296C323.916 236.972 323.781 236.99 331.685 233.668C340.334 230.041 348.955 226.362 357.586 222.7C361.444 221.063 363.373 222.575 363.373 227.237V227.246Z" fill="#C01D2E"/>
<path d="M174.968 246.466C176.458 251.048 173.354 252.986 168.975 254.719C158.775 258.755 148.717 263.159 138.669 267.562C136.211 268.642 135.457 268.553 135.422 265.588C135.314 256.406 135.251 256.532 143.837 253.057C152.504 249.547 161.062 245.76 169.666 242.099C173.201 240.598 174.968 242.054 174.968 246.466Z" fill="#C01D2E"/>
<path d="M323.889 261.685C322.785 257.907 324.938 255.835 329.047 254.227C339.562 250.11 349.933 245.618 360.269 241.081C363.014 239.875 363.4 240.509 363.427 243.197C363.516 251.798 363.615 251.807 355.944 255.111C347.206 258.88 338.477 262.649 329.729 266.392C325.841 268.059 323.895 266.49 323.889 261.685Z" fill="#C01D2E"/>
<path d="M135.484 202.837C134.031 198.773 136.992 197.058 140.769 195.513C151.104 191.298 161.394 186.966 171.604 182.474C174.601 181.152 175.013 181.956 175.022 184.832C175.04 193.361 175.157 193.379 167.352 196.657C158.712 200.283 150.063 203.864 141.424 207.472C137.464 209.128 135.484 207.579 135.484 202.828V202.837Z" fill="#C01D2E"/>
<path d="M174.968 207.919C176.162 211.75 173.829 213.617 169.783 215.207C159.286 219.324 148.951 223.861 138.615 228.389C136.193 229.452 135.422 229.506 135.404 226.469C135.35 217.502 135.224 217.511 143.46 214.028C151.938 210.437 160.399 206.829 168.868 203.23C172.929 201.503 174.96 203.069 174.96 207.928L174.968 207.919Z" fill="#C01D2E"/>
<path d="M174.968 266.624C176.251 270.58 173.668 272.411 169.693 273.983C159.771 277.913 149.965 282.155 140.212 286.487C136.382 288.184 135.646 287.273 135.323 283.227C134.892 277.77 136.678 275.162 141.917 273.278C151.122 269.973 159.995 265.74 169.02 261.917C172.992 260.238 174.977 261.807 174.977 266.624H174.968Z" fill="#C01D2E"/>
<path d="M363.373 266.633C364.701 270.616 362.126 272.635 358.071 273.947C355.119 274.903 351.97 275.85 349.53 277.636C342.487 282.798 337.131 278.636 331.532 275.064C329.478 273.751 330.501 273.242 332.017 272.608C341.599 268.589 351.18 264.579 360.717 260.461C363.014 259.47 363.606 260.113 363.391 262.364C363.283 263.543 363.373 264.73 363.373 266.633Z" fill="#C01D2E"/>
<path d="M256.377 295.963C261.981 295.963 264.784 298.717 264.784 304.224C264.784 310.173 261.778 313.15 255.767 313.156C250.336 313.156 247.621 310.5 247.621 305.189V304.742C247.621 298.889 250.537 295.963 256.368 295.963H256.377Z" fill="#1A335C"/>
<path d="M287.114 304.796C287.114 310.369 284.372 313.156 278.887 313.156C272.936 313.156 269.96 310.143 269.96 304.117C269.96 298.675 272.646 295.954 278.017 295.954C284.081 295.954 287.114 298.898 287.114 304.787V304.796Z" fill="#1A335C"/>
<path d="M287.114 326.249C287.114 332.102 284.213 335.028 278.411 335.028C272.783 335.028 269.969 332.289 269.969 326.811C269.969 320.822 272.963 317.827 278.95 317.827C284.398 317.827 287.123 320.631 287.123 326.24L287.114 326.249Z" fill="#1A335C"/>
<path d="M264.784 326.624C264.784 332.227 262.029 335.028 256.521 335.028C250.593 335.028 247.63 332.149 247.63 326.392C247.63 320.634 250.444 317.782 256.072 317.836C261.88 317.836 264.784 320.765 264.784 326.624Z" fill="#1A335C"/>
<path d="M174.968 285.299C175.677 291.605 174.215 293.65 166.688 292.328C162.309 291.56 157.886 291.033 153.49 290.301C152.71 290.176 152.001 289.613 151.256 289.256C151.893 288.907 152.512 288.496 153.185 288.211C159.062 285.719 165.073 283.513 170.779 280.691C174.583 278.815 175.435 279.824 174.977 283.522C174.906 284.102 174.968 284.71 174.968 285.299Z" fill="#C01D2E"/>
<path d="M363.382 284.987C363.382 286.353 363.364 287.389 363.382 288.425C363.436 292.051 361.919 293.105 358.717 291.167C355.603 289.282 352.544 287.309 349.458 285.371C352.203 283.031 355.819 282.468 358.896 280.816C365.652 277.198 362.7 283.022 363.373 284.987H363.382Z" fill="#C01D2E"/>
<path d="M416.305 331.081C416.673 333.698 416.449 335.234 413.273 335.153C410.456 335.082 409.828 334.153 409.81 331.536C409.792 328.83 410.582 327.955 413.345 327.99C415.956 328.026 416.978 328.803 416.305 331.081Z" fill="#1A335C"/>
<path d="M425.313 331.563C425.941 334.367 424.748 335.109 421.993 335.118C419.275 335.118 418.809 334.082 418.8 331.706C418.8 329.277 419.033 327.91 422.065 327.928C424.927 327.946 425.851 328.937 425.313 331.554V331.563Z" fill="#1A335C"/>
<path d="M124.754 331.858C125.454 335.269 123.301 334.93 121.058 335.082C117.326 335.332 118.591 332.751 118.331 330.938C117.9 327.99 119.748 328.142 121.865 327.99C125.248 327.758 125.014 329.786 124.754 331.858Z" fill="#1A335C"/>
<path d="M115.783 331.67C116.447 334.528 115.083 335.082 112.4 335.118C109.583 335.153 109.296 333.93 109.287 331.643C109.269 329.205 109.538 327.901 112.616 327.946C115.594 327.99 116.276 329.116 115.783 331.67Z" fill="#1A335C"/>
<path d="M425.259 322.748C425.797 325.418 425.044 326.401 422.334 326.401C419.652 326.401 418.647 325.775 418.817 322.944C418.952 320.676 419.167 319.408 421.949 319.533C424.461 319.649 426.228 319.89 425.268 322.748H425.259Z" fill="#1A335C"/>
<path d="M416.332 322.882C416.763 325.213 416.287 326.454 413.434 326.392C410.878 326.329 409.604 325.963 409.837 323.016C410.007 320.845 410.016 319.425 412.896 319.506C415.453 319.577 417.014 319.961 416.341 322.891L416.332 322.882Z" fill="#1A335C"/>
<path d="M118.429 323.444C118.16 320.979 118.133 319.327 121.219 319.533C123.642 319.693 124.996 319.854 124.925 322.873C124.862 325.552 124.279 326.526 121.444 326.374C119.012 326.249 117.559 325.865 118.429 323.444Z" fill="#1A335C"/>
<path d="M115.774 323.123C116.384 325.802 115.092 326.267 112.652 326.392C109.655 326.544 109.287 325.311 109.287 322.784C109.287 320.292 110.014 319.559 112.553 319.497C115.504 319.416 116.276 320.56 115.765 323.123H115.774Z" fill="#1A335C"/>
<path d="M204.665 451.867C204.97 451.259 205.284 450.643 205.589 450.036C206.692 451.572 206.046 453.385 206.396 455.037C206.872 457.297 204.961 459.878 207.32 461.879C206.71 462.432 206.109 462.986 205.499 463.54C206.315 459.574 203.875 455.832 204.656 451.867L204.665 451.867Z" fill="#596C8F"/>
<path d="M299.836 456.332C301.962 457.109 306.43 454.064 306.026 460.378C305.802 463.933 305.335 465.728 301.424 465.174C300.257 465.014 299.037 465.156 297.844 465.148C295.081 465.139 292.353 465.88 292.299 461.191C292.246 456.806 293.879 455.788 297.674 456.315C298.257 456.395 298.867 456.323 299.827 456.323L299.836 456.332Z" fill="#596C8F"/>
<path d="M276.805 483.162C283.202 483.162 289.599 483.162 296.005 483.18C296.57 483.18 297.144 483.376 297.709 483.483C297.261 484.269 296.489 483.939 295.843 483.992C282.834 484.984 269.826 484.984 256.817 483.992C256.198 483.948 255.417 484.332 255.013 483.483C255.579 483.376 256.153 483.18 256.718 483.18C263.411 483.162 270.113 483.162 276.805 483.162Z" fill="#596C8F"/>
<path d="M275.89 482.072C271.88 482.072 267.879 482.072 263.868 482.063C263.285 482.063 262.711 481.92 262.128 481.84C262.639 481.733 263.142 481.536 263.653 481.536C272.113 481.518 280.574 481.518 289.034 481.536C289.536 481.536 290.039 481.742 290.541 481.849C289.958 481.929 289.384 482.072 288.801 482.072C284.494 482.09 280.188 482.081 275.89 482.081V482.072Z" fill="#596C8F"/>
<path d="M276.348 476.767C272.49 476.767 268.632 476.785 264.784 476.767C264.209 476.767 263.626 476.588 263.052 476.49C263.563 476.374 264.075 476.151 264.595 476.151C272.454 476.133 280.313 476.133 288.173 476.16C288.666 476.16 289.159 476.383 289.653 476.499C289.079 476.588 288.496 476.749 287.921 476.749C284.064 476.776 280.215 476.758 276.357 476.767H276.348Z" fill="#596C8F"/>
<path d="M276.007 474.168C273.333 474.168 270.651 474.186 267.977 474.15C267.403 474.15 266.838 473.936 266.264 473.82C266.775 473.677 267.287 473.409 267.798 473.409C273.45 473.373 279.093 473.373 284.745 473.4C285.32 473.4 285.885 473.623 286.45 473.739C285.795 473.882 285.131 474.15 284.476 474.159C281.65 474.204 278.824 474.177 276.007 474.177V474.168Z" fill="#596C8F"/>
<path d="M267.708 457.333C268.785 457.538 270.579 456.886 270.66 458.387C270.75 460.244 268.812 459.771 267.619 459.86C266.497 459.941 264.819 460.11 264.864 458.565C264.909 457.011 266.614 457.476 267.717 457.342L267.708 457.333Z" fill="#596C8F"/>
<path d="M243.287 478.178C242.498 479.384 244.221 480.947 242.426 481.492C242.256 481.545 241.403 479.509 241.753 478.321C242.121 477.089 242.292 474.695 243.198 474.99C244.75 475.49 242.022 477.142 243.279 478.178H243.287Z" fill="#596C8F"/>
<path d="M310.808 479.464C310.691 480.268 310.853 481.17 309.974 481.697C309.642 479.661 309.292 477.633 309.005 475.597C308.96 475.302 309.184 474.981 309.283 474.668C311.14 475.847 310.234 477.875 310.817 479.464H310.808Z" fill="#596C8F"/>
<path d="M187.412 515.154C185.672 518.574 183.913 521.986 182.191 525.416C181.446 526.898 181.015 528.354 178.656 527.157C176.556 526.094 176.691 525.076 177.561 523.335C181.742 515.002 185.806 506.615 189.987 498.282C190.543 497.175 190.516 495.085 192.939 496.067C195.002 496.907 196.15 497.952 195.469 500.39C194.554 503.659 193.827 506.99 193.073 510.304C192.948 510.858 192.975 511.956 193.091 511.983C194.033 512.171 194.114 511.215 194.392 510.679C195.881 507.776 197.335 504.865 198.689 501.9C199.425 500.292 200.224 499.613 202.108 500.453C204.019 501.31 203.956 502.284 203.148 503.9C198.788 512.644 194.482 521.405 190.238 530.203C189.619 531.48 189.144 532.212 187.618 531.435C186.013 530.622 184.469 530.149 185.053 527.613C186.013 523.477 187.771 519.458 187.331 515.073C187.466 515.064 187.601 515.055 187.717 515.029C187.789 515.011 187.843 514.939 187.906 514.886C187.744 514.966 187.574 515.055 187.412 515.136V515.154Z" fill="#C01D2E"/>
<path d="M349.162 529.229C349.359 530.953 347.816 530.935 346.937 531.516C345.923 532.185 345.124 532.248 344.47 530.882C340.02 521.673 335.516 512.492 331.012 503.302C330.447 502.15 330.662 501.364 331.9 500.837C333.399 500.194 334.807 499.193 336.252 501.042C338.638 504.088 341.114 507.053 343.599 510.018C343.976 510.474 344.227 511.286 345.124 511.063C344.954 510.536 344.846 509.982 344.613 509.491C343.079 506.285 341.59 503.052 339.93 499.908C339.087 498.291 339.087 497.371 340.926 496.425C342.756 495.487 343.492 495.96 344.29 497.63C348.471 506.321 352.741 514.966 356.958 523.638C357.505 524.755 358.618 525.978 356.545 526.862C355.065 527.497 353.71 528.684 352.23 526.809C349.924 523.888 347.538 521.039 345.169 518.172C344.891 517.833 344.254 517.297 344.2 517.342C343.635 517.806 344.039 518.253 344.281 518.771C345.941 522.245 347.547 525.746 349.171 529.22L349.162 529.229Z" fill="#C01D2E"/>
<path d="M357.882 488.092C359.434 487.994 361.031 489.146 362.126 490.789C366.145 496.862 370.236 502.891 373.932 509.161C376.498 513.51 370.712 522.111 365.714 521.745C364.539 521.656 364.207 520.423 363.66 519.575C358.582 511.715 353.567 503.811 348.435 495.987C347.233 494.156 346.964 492.933 349.269 491.816C351.916 490.539 354.015 488.128 357.891 488.074L357.882 488.092ZM369.375 511.34C365.732 505.892 361.758 499.863 357.64 493.933C357.138 493.209 355.944 493.71 355.182 494.21C353.89 495.067 354.652 495.978 355.209 496.844C358.717 502.319 362.242 507.785 365.732 513.278C366.351 514.243 366.926 515.02 368.173 514.198C368.944 513.698 369.599 513.126 369.366 511.34H369.375Z" fill="#C01D2E"/>
<path d="M205.732 538.366C203.785 537.705 200.977 536.767 198.178 535.785C196.671 535.249 197.29 534.052 197.595 533.168C200.798 523.951 204.072 514.743 207.32 505.543C207.616 504.704 207.867 503.838 208.908 503.614C214.058 502.489 221.083 508.848 219.593 513.653C217.404 520.7 214.722 527.604 212.165 534.543C211.259 536.999 209.393 538.33 205.732 538.375V538.366ZM212.201 509.973C210.99 510.09 210.9 511.036 210.613 511.867C208.469 517.976 206.306 524.076 204.135 530.167C203.776 531.167 203.355 532.132 204.763 532.73C206.073 533.284 207.266 533.061 207.742 531.757C210.048 525.398 212.308 519.021 214.426 512.599C214.982 510.929 213.475 510.375 212.201 509.973Z" fill="#C01D2E"/>
<path d="M254.744 521.12C252.869 525.648 255.597 532.025 249.926 536.499C248.321 537.759 251.236 541.268 251.658 543.832C251.882 545.162 254.197 547.038 251.802 547.744C250.007 548.279 247.208 548.065 246.759 544.859C246.562 543.403 246.042 541.983 245.575 540.581C245.234 539.536 244.732 538.544 244.31 537.526C244.014 538.669 243.664 539.804 243.449 540.956C243.261 541.974 243.126 543.019 243.153 544.055C243.216 546.35 241.951 546.636 240.013 546.538C237.851 546.431 237.68 545.297 237.887 543.582C239.062 534.016 240.192 524.451 241.35 514.886C241.448 514.055 241.323 513.153 242.399 512.671C247.405 510.411 254.924 515.118 254.735 521.12H254.744ZM244.929 528.416C245.216 529.577 243.763 531.685 246.024 531.98C248.195 532.266 248.41 530.283 248.572 528.577C248.823 525.925 249.164 523.272 249.433 520.619C249.586 519.137 248.706 518.422 247.37 518.244C245.674 518.02 245.979 519.423 245.853 520.334C245.503 522.977 245.234 525.639 244.92 528.408L244.929 528.416Z" fill="#C01D2E"/>
<path d="M304.42 509.831C307.578 509.661 309.624 511.242 310.333 514.144C312.208 521.745 314.083 529.354 315.572 537.035C316.352 541.054 313.903 543.385 310.01 544.252C306.161 545.109 302.904 544.225 301.854 540.188C299.907 532.766 298.167 525.264 296.776 517.717C295.852 512.715 298.947 509.831 304.42 509.822V509.831ZM310.341 536.714C308.843 530.078 307.354 523.433 305.82 516.797C305.506 515.43 304.546 514.779 303.146 515.18C301.935 515.52 301.603 516.484 301.863 517.636C303.371 524.272 304.869 530.908 306.43 537.535C306.735 538.83 307.659 539.616 309.085 539.223C310.333 538.875 310.503 537.848 310.333 536.723L310.341 536.714Z" fill="#C01D2E"/>
<path d="M285.329 513.457C289.438 512.796 292.066 515.332 292.138 519.324C292.237 524.674 295.655 530.185 291.133 535.579C289.68 537.312 293.179 539.429 293.87 541.59C294.381 543.189 297.575 544.662 295.323 546.216C293.089 547.762 290.72 546.69 289.357 543.742C288.478 541.84 287.85 539.545 285.768 538.339C285.903 540.331 285.966 542.34 286.208 544.323C286.459 546.377 286.109 547.565 283.633 547.851C280.95 548.154 281.112 546.502 280.941 544.886C280.062 536.776 279.201 528.658 278.322 520.548C277.595 513.832 277.81 513.591 285.32 513.457H285.329ZM288.101 527.693C287.841 525.871 287.527 523.835 287.284 521.798C287.105 520.343 287.239 518.619 285.077 518.69C282.493 518.78 283.624 520.753 283.678 521.977C283.767 524.022 283.983 526.094 284.422 528.095C284.745 529.569 283.489 532.266 286.342 532.132C289.079 532.007 287.769 529.47 288.11 527.693H288.101Z" fill="#C01D2E"/>
<path d="M166.993 520.048C161.224 519.86 157.662 514.278 160.578 509.384C164.974 501.98 169.873 494.871 174.43 487.556C175.659 485.582 176.772 486.466 178.1 487.181C179.93 488.172 179.625 489.262 178.629 490.771C174.457 497.095 170.366 503.472 166.32 509.875C165.512 511.161 163.862 512.814 165.755 514.144C168.06 515.77 168.796 513.242 169.675 511.912C173.766 505.713 177.821 499.479 181.751 493.183C182.908 491.325 183.806 490.736 185.905 492.057C188.166 493.486 187.008 494.665 186.138 496.014C181.715 502.891 177.292 509.759 172.851 516.618C171.488 518.726 169.702 520.173 167.002 520.057L166.993 520.048Z" fill="#C01D2E"/>
<path d="M336.287 531.98C335.964 535.472 334.116 537.419 331.111 538.277C328.069 539.143 324.588 539.447 323.243 536.142C319.672 527.372 316.64 518.387 313.446 509.464C312.701 507.392 314.639 507.58 315.733 507.017C317.429 506.151 318.048 506.865 318.595 508.455C321.107 515.734 323.727 522.968 326.32 530.212C326.84 531.685 326.939 533.891 329.254 533.293C332.143 532.543 330.501 530.337 330.034 528.917C327.72 521.888 325.297 514.895 322.704 507.964C321.942 505.928 321.753 504.749 324.176 503.945C326.508 503.168 326.975 504.472 327.558 506.178C330.16 513.733 332.851 521.263 335.48 528.818C335.866 529.935 336.072 531.105 336.296 531.98H336.287Z" fill="#C01D2E"/>
<path d="M259.293 531.533C259.293 528.122 259.239 524.719 259.311 521.307C259.374 518.378 259.966 515.502 263.151 514.439C266.201 513.43 269.449 513.251 271.943 515.77C274.419 518.271 273.701 521.584 273.54 524.647C273.459 526.201 272.024 525.728 271.082 525.764C269.915 525.809 268.561 525.969 268.444 524.21C268.381 523.326 268.408 522.432 268.39 521.548C268.354 520.289 268.148 519.021 266.587 518.985C264.721 518.94 264.577 520.387 264.568 521.781C264.559 528.006 264.532 534.231 264.568 540.447C264.568 541.688 264.129 543.332 266.031 543.653C266.632 543.751 267.699 543.403 267.933 542.948C268.605 541.626 269.063 539.643 267.879 538.848C265.645 537.348 266.04 535.186 266.838 533.891C267.789 532.346 270.14 533.373 271.88 533.257C272.382 533.221 273.351 533.614 273.369 533.865C273.683 537.83 274.356 541.876 272.705 545.672C271.557 548.306 269.063 548.976 266.38 548.967C261.832 548.958 259.481 546.77 259.32 542.206C259.194 538.652 259.293 535.097 259.293 531.542V531.533Z" fill="#C01D2E"/>
<path d="M371.618 477.553C373.358 477.58 374.04 478.544 374.803 479.473C380.132 486.011 385.443 492.566 390.853 499.033C392.827 501.4 392.504 503.096 390.099 504.927C387.82 506.66 386.026 507.642 383.774 504.775C378.562 498.148 373.134 491.682 367.814 485.136C366.917 484.028 365.535 482.912 366.746 481.286C368.074 479.5 369.725 478.053 371.618 477.553Z" fill="#1A335C"/>
<path d="M162.911 477.526C165.01 478 166.652 479.455 167.989 481.268C169.191 482.912 167.818 484.037 166.921 485.153C161.601 491.745 156.209 498.291 150.916 504.909C148.888 507.437 146.986 506.91 144.851 505.115C142.985 503.552 141.486 502.042 143.514 499.577C149.175 492.683 154.827 485.779 160.452 478.866C161.053 478.125 161.744 477.669 162.92 477.526H162.911Z" fill="#1A335C"/>
<path d="M228.7 534.347C228.386 534.293 227.372 533.981 226.34 533.954C224.609 533.909 224.788 535.463 224.483 536.508C223.774 538.911 225.945 538.562 227.121 539.089C228.843 539.866 232.208 538.723 231.122 542.653C230.081 546.422 227.605 544.225 225.766 543.85C217.952 542.233 217.934 542.171 219.719 534.284C221.424 526.782 223.317 519.315 224.887 511.786C225.371 509.446 226.089 508.839 228.404 509.625C230.646 510.384 233.024 510.75 235.366 511.17C237.268 511.51 238.263 512.188 237.734 514.394C237.259 516.368 236.128 516.886 234.504 516.163C229.866 514.091 228.574 516.591 228.107 520.512C227.946 521.825 227.596 523.129 227.192 524.397C226.277 527.246 226.475 529.372 230.189 529.488C232.62 529.569 232.629 531.051 232.288 532.873C231.956 534.624 230.987 535.061 228.7 534.329V534.347Z" fill="#C01D2E"/>
</svg>
