<svg width="38" height="38" viewBox="0 0 38 38" fill="none" xmlns="http://www.w3.org/2000/svg">
<path d="M0.714844 5.01855H12.5463V8.24532H0.714844V5.01855Z" fill="white"/>
<path d="M2.86719 0.716309H10.3963V2.86749H2.86719V0.716309Z" fill="white"/>
<path d="M27.6055 35.1353H35.1346V37.2864H27.6055V35.1353Z" fill="white"/>
<path d="M13.6211 15.7744H25.4526V19.0012H13.6211V15.7744Z" fill="white"/>
<path d="M25.4531 29.7573H37.2846V32.9841H25.4531V29.7573Z" fill="white"/>
<path d="M15.7742 27.0681C15.7742 28.5508 14.568 29.7571 13.0853 29.7571C11.6025 29.7571 10.3963 28.5508 10.3963 27.0681V10.3965H2.86719V27.0681C3.38103 40.6054 22.7918 40.6013 23.3034 27.068V21.1524H15.7742V27.0681Z" fill="white"/>
<path d="M23.3026 10.3964C23.3026 9.21028 24.2676 8.24526 25.4537 8.24526C26.6399 8.24526 27.6049 9.21028 27.6049 10.3964V27.6059H35.134V10.3964C34.6473 -2.42845 16.258 -2.42443 15.7734 10.3966C15.7734 10.3964 15.7734 13.6232 15.7734 13.6232H23.3026V10.3964Z" fill="white"/>
</svg>
