<svg width="38" height="38" viewBox="0 0 38 38" fill="none" xmlns="http://www.w3.org/2000/svg">
<g clip-path="url(#clip0_1099_1222)">
<path d="M19.3611 13.0193L14.2068 7.85583L17.1324 2.85889H7.14453V17.9297H18.1194L19.3611 13.0193Z" fill="white"/>
<path d="M30.8574 2.85889H19.6149L16.8906 7.51199L21.7359 12.3659L20.3291 17.9297H30.8574V2.85889Z" fill="white"/>
<path d="M0.714844 0.716309H5.00039V20.0727H0.714844V0.716309Z" fill="white"/>
<path d="M33 0.716309H37.2855V20.0727H33V0.716309Z" fill="white"/>
<path d="M15.3138 20.5015L13.0783 22.7369C12.5062 23.3091 12.1523 24.0995 12.1523 24.9724C12.1523 26.7185 13.5678 28.134 15.3139 28.134C17.0599 28.134 18.4754 26.7185 18.4754 24.9724C18.4754 24.0994 18.1215 23.3091 17.5494 22.7369L15.3138 20.5015Z" fill="white"/>
<path d="M22.6849 29.6538L20.4494 31.8893C19.8773 32.4614 19.5234 33.2518 19.5234 34.1248C19.5234 35.8709 20.9389 37.2863 22.685 37.2863C24.431 37.2863 25.8465 35.8709 25.8465 34.1248C25.8465 33.2517 25.4926 32.4614 24.9205 31.8893L22.6849 29.6538Z" fill="white"/>
</g>
<defs>
<clipPath id="clip0_1099_1222">
<rect width="36.57" height="36.57" fill="white" transform="translate(0.714844 0.716309)"/>
</clipPath>
</defs>
</svg>
