<svg width="37" height="32" viewBox="0 0 37 32" fill="none" xmlns="http://www.w3.org/2000/svg">
<path d="M27.7419 21.4877L24.4684 23.2041L25.8048 24.864C25.9969 25.1026 26.0777 25.4111 26.0269 25.7126C25.9769 26.014 25.8005 26.2797 25.5413 26.4425L22.9299 28.0875L22.6521 31.9987H26.8919C27.2748 31.9987 27.629 31.7945 27.8204 31.4623L32.031 24.1598L27.7419 21.4877ZM6.57564 16.8543C6.27065 16.8351 5.98852 16.6865 5.79995 16.4465C5.61139 16.2058 5.53425 15.8958 5.58853 15.5951L6.13494 12.5581L3.44933 9.72962L0.14303 15.4644C-0.0476767 15.7958 -0.0476767 16.2029 0.14303 16.5344L3.24005 21.9056L7.76059 20.5713L8.70341 16.9872L6.57564 16.8543ZM36.4272 15.4644L27.8204 0.536407C27.629 0.204278 27.2748 0 26.8919 0H26.3684L22.0257 4.0627V6.14262C22.0257 6.53689 21.8085 6.89902 21.4614 7.08615L18.4094 8.72895C18.2487 8.81537 18.0744 8.8568 17.9023 8.8568C17.5559 8.8568 17.218 8.68895 17.013 8.38324L15.3638 5.93263L13.806 6.13405C13.2424 6.2069 12.721 5.82763 12.6153 5.26979L11.624 0H9.67837C9.29553 0 8.94126 0.204278 8.74984 0.536407L4.56571 7.79327L8.06272 11.476C8.29771 11.7238 8.40056 12.0681 8.33985 12.4038L7.91058 14.7909L10.1384 14.9301C10.4576 14.9501 10.7519 15.1123 10.9398 15.3723C11.1276 15.6315 11.189 15.9622 11.1076 16.2722L9.67909 21.7006C9.58338 22.0627 9.30553 22.3491 8.94626 22.4556L4.34072 23.8155L8.74984 31.4623C8.94126 31.7945 9.29553 31.9987 9.67837 31.9987H20.5036L20.8314 27.3946C20.8557 27.0539 21.04 26.7454 21.3293 26.564L23.3813 25.2712L21.9821 23.5327C21.7807 23.2827 21.7021 22.9562 21.7671 22.6427C21.8328 22.3284 22.035 22.0606 22.3192 21.912L27.2905 19.3057C27.6269 19.1285 28.0319 19.1435 28.354 19.345L33.1017 22.3027L36.4272 16.5344C36.5229 16.3686 36.57 16.1837 36.57 15.9994C36.57 15.8151 36.5229 15.6301 36.4272 15.4644ZM18.2851 20.9992C15.5281 20.9992 13.2853 18.7564 13.2853 15.9994C13.2853 13.2423 15.5281 10.9996 18.2851 10.9996C21.0421 10.9996 23.2849 13.2423 23.2849 15.9994C23.2849 18.7564 21.0421 20.9992 18.2851 20.9992ZM13.8039 0L14.5346 3.87913L15.746 3.72271C16.1481 3.67129 16.5452 3.85056 16.7717 4.18769L18.2488 6.38189L19.883 5.50264V3.59772C19.883 3.3013 20.0058 3.01774 20.2222 2.8156L23.2313 0H13.8039Z" fill="white"/>
</svg>
