<svg width="38" height="38" viewBox="0 0 38 38" fill="none" xmlns="http://www.w3.org/2000/svg">
<path d="M34.0608 33.2989L24.2052 23.4433C24.7598 21.3771 24.1808 19.2011 22.6571 17.6835C21.1577 16.1902 19.0366 15.599 16.9765 16.111C16.7632 16.1597 16.5986 16.3243 16.5377 16.5376C16.4767 16.7509 16.5377 16.9765 16.69 17.1288L19.6461 20.091L19.1159 22.6082L16.5925 23.1446L13.6365 20.1885C13.4841 20.0301 13.2586 19.9691 13.0452 20.0301C12.8319 20.0849 12.6673 20.2556 12.6186 20.4689C12.1005 22.529 12.6856 24.6562 14.185 26.1555C15.7088 27.6793 17.8908 28.2583 19.9509 27.7037L26.4055 34.1583C26.5213 34.2741 26.6737 34.335 26.8382 34.335H33.6281C33.8779 34.335 34.0974 34.1887 34.1949 33.9632C34.2863 33.7316 34.2376 33.4634 34.0608 33.2989Z" fill="white"/>
<path d="M4.41998 5.26172C4.08475 5.26172 3.81048 5.53599 3.81048 5.87122L3.76172 13.6119C3.76172 13.9471 4.03599 14.2214 4.37122 14.2275L8.57677 14.2518C8.57067 14.1543 8.54629 14.0629 8.55239 13.9654L8.60115 5.57256C8.60115 5.47504 8.61943 5.38362 8.63162 5.2861L4.42607 5.26172H4.41998Z" fill="white"/>
<path d="M13.7535 15.922C14.7043 15.922 15.4906 15.215 15.643 14.3068L22.2438 14.3251C22.3718 15.2576 23.1642 15.9829 24.1333 15.989L26.1934 16.0012H26.2056C27.26 16.0012 28.1194 15.1479 28.1255 14.0874L28.1743 5.69457C28.1804 4.63404 27.3271 3.76855 26.2665 3.76246L24.2064 3.75027C23.6884 3.74417 23.2069 3.94531 22.8412 4.30491C22.5486 4.59747 22.3657 4.96317 22.3048 5.36544L15.7039 5.34106C15.5759 4.40853 14.7836 3.68932 13.8145 3.68322L11.7543 3.67103C11.2241 3.66494 10.7609 3.86607 10.3952 4.22568C10.0295 4.58528 9.82832 5.06679 9.82223 5.57877L9.77347 13.9716C9.76737 15.0321 10.6207 15.9037 11.6812 15.9098L13.7413 15.922H13.7535Z" fill="white"/>
<path d="M33.5729 5.43844L29.3674 5.41406C29.3735 5.51158 29.3917 5.60301 29.3917 5.69443L29.343 14.0872C29.343 14.1848 29.3186 14.2762 29.3125 14.3737L33.5241 14.3981C33.8594 14.3981 34.1336 14.1299 34.1336 13.7947L34.1824 6.05404C34.1824 5.88947 34.1154 5.7371 34.0057 5.62129C33.8898 5.50549 33.7375 5.43844 33.5729 5.43844Z" fill="white"/>
<path d="M7.3359 20.487H7.34809C7.89664 20.487 8.39034 20.2676 8.74994 19.908C9.10955 19.5484 9.33506 19.0608 9.33506 18.5123C9.34116 17.6346 8.21968 15.8609 7.87836 15.3368C7.76255 15.1661 7.57361 15.0625 7.37247 15.0625H7.36638C7.16524 15.0625 6.9763 15.16 6.86049 15.3307C6.51308 15.8488 5.36722 17.6102 5.36722 18.4879C5.36112 19.585 6.2449 20.481 7.3359 20.487Z" fill="white"/>
</svg>
