<svg width="38" height="38" viewBox="0 0 38 38" fill="none" xmlns="http://www.w3.org/2000/svg">
<g clip-path="url(#clip0_1099_1281)">
<path d="M23.3552 7.1416C19.2196 7.1416 15.8555 10.5058 15.8555 14.6413C15.8555 18.7769 19.2196 22.141 23.3552 22.141C27.4907 22.141 30.8549 18.7769 30.8549 14.6413C30.8549 10.5058 27.4907 7.1416 23.3552 7.1416ZM28.3986 13.2564L23.0416 18.6133C22.6256 19.0294 21.946 19.0334 21.526 18.6133L18.3118 15.3991C17.894 14.9806 17.894 14.302 18.3118 13.8835C18.7304 13.4656 19.4089 13.4656 19.8275 13.8835L22.2838 16.3405L26.8829 11.7407C27.3015 11.3229 27.98 11.3229 28.3986 11.7407C28.8164 12.1593 28.8164 12.8378 28.3986 13.2564Z" fill="white"/>
<path d="M23.3566 0.713379C15.6769 0.713379 9.42859 6.96169 9.42859 14.6414C9.42859 18.0962 10.6935 21.2618 12.7842 23.6981C12.7842 23.6982 12.7843 23.6983 12.7844 23.6984L11.0198 25.463L10.2621 24.7052C9.84429 24.2867 9.16503 24.2874 8.74719 24.7052L1.02822 32.4242C0.610384 32.8428 0.610384 33.5206 1.02822 33.9392L4.05881 36.9697C4.47737 37.3883 5.15591 37.3876 5.57375 36.9697L13.2927 29.2508C13.7113 28.8322 13.7113 28.1544 13.2927 27.7358L12.535 26.9781L14.2995 25.2135C14.2996 25.2136 14.2997 25.2137 14.2998 25.2137C16.7362 27.3044 19.9017 28.5693 23.3566 28.5693C31.0363 28.5693 37.2846 22.321 37.2846 14.6413C37.2846 6.96162 31.0363 0.713379 23.3566 0.713379ZM23.3566 24.2838C18.0397 24.2838 13.7141 19.9583 13.7141 14.6414C13.7141 9.32445 18.0397 4.99892 23.3566 4.99892C28.6735 4.99892 32.9991 9.32445 32.9991 14.6414C32.9991 19.9583 28.6735 24.2838 23.3566 24.2838Z" fill="white"/>
</g>
<defs>
<clipPath id="clip0_1099_1281">
<rect width="36.57" height="36.57" fill="white" transform="translate(0.714844 0.713379)"/>
</clipPath>
</defs>
</svg>
